<svg xmlns="http://www.w3.org/2000/svg" xmlns:xlink="http://www.w3.org/1999/xlink"><defs><clipPath id="smileyclip0"><path fill="#fff" d="M0 0h24v24H0z"/></clipPath><clipPath id="trendclip0"><path fill="#fff" d="M0 0h24v24H0z"/></clipPath><symbol id="account" viewBox="0 0 24 24"><path d="M12 22C6.477 22 2 17.523 2 12S6.477 2 12 2s10 4.477 10 10-4.477 10-10 10zm-4.987-3.744A7.966 7.966 0 0012 20a7.97 7.97 0 005.167-1.892A6.978 6.978 0 0012.16 16a6.982 6.982 0 00-5.147 2.256zM5.616 16.82A8.975 8.975 0 0112.16 14a8.972 8.972 0 016.362 2.634 8 8 0 10-12.906.187v-.001zM12 13a4 4 0 110-8 4 4 0 010 8zm0-2a2 2 0 100-4 2 2 0 000 4z"/></symbol><symbol id="arrow-bottom" viewBox="0 0 24 24"><path clip-rule="evenodd" d="M13 3a1 1 0 10-2 0v15.586l-4.293-4.293a1 1 0 00-1.414 1.414l5.999 6 .002.001.706.706.707-.706v-.001l6-6a1 1 0 00-1.414-1.414L13 18.586V3z"/></symbol><symbol id="arrow-left" viewBox="0 0 24 24"><path clip-rule="evenodd" d="M8.293 18.707a1 1 0 001.414-1.414L5.414 13H21a1 1 0 000-2H5.414l4.293-4.293a1 1 0 10-1.414-1.414L1.586 12l.706.706.002.002 5.999 6z"/></symbol><symbol id="arrow-long-right" viewBox="0 0 40 24"><path clip-rule="evenodd" d="M31.707 5.293a1 1 0 10-1.414 1.414L34.586 11H3a1 1 0 100 2h31.586l-4.293 4.293a1 1 0 001.414 1.414L38.414 12l-6.707-6.707z"/></symbol><symbol id="arrow-right" viewBox="0 0 24 24"><path clip-rule="evenodd" d="M15.707 5.293a1 1 0 10-1.414 1.414L18.586 11H3a1 1 0 100 2h15.586l-4.293 4.293a1 1 0 001.414 1.414L22.414 12l-6.707-6.707z"/></symbol><symbol id="article" viewBox="0 0 24 24"><path d="M16 20V4H4v15a1 1 0 001 1h11zm3 2H5a3 3 0 01-3-3V3a1 1 0 011-1h14a1 1 0 011 1v7h4v9a3 3 0 01-3 3zm-1-10v7a1 1 0 002 0v-7h-2zM6 6h6v6H6V6zm2 2v2h2V8H8zm-2 5h8v2H6v-2zm0 3h8v2H6v-2z"/></symbol><symbol id="bars-horis" viewBox="0 0 24 24"><path d="M11 3v3H2V3h9zm4 15v3H2v-3h13zm7-7.5v3H2v-3h20z"/></symbol><symbol id="blockquote" viewBox="0 0 24 24"><path d="M9.68 18.563H3.094v-4.711c0-1.907.164-3.407.492-4.5.344-1.11.969-2.102 1.875-2.977S7.523 4.812 8.93 4.312l1.289 2.72c-1.313.437-2.258 1.046-2.836 1.827-.563.782-.86 1.82-.89 3.118H9.68v6.585zm10.992 0h-6.586v-4.711c0-1.922.164-3.43.492-4.524.344-1.094.969-2.078 1.875-2.953.922-.875 2.078-1.563 3.469-2.063l1.289 2.72c-1.313.437-2.258 1.046-2.836 1.827-.563.782-.86 1.82-.89 3.118h3.187v6.585z" fill="currentColor"/></symbol><symbol id="bubble-chart" viewBox="0 0 24 24"><path d="M16.002 16a3 3 0 110 6 3 3 0 010-6zm-10-4c2.21 0 4 1.79 4 4s-1.79 4-4 4-4-1.79-4-4 1.79-4 4-4zm10 6a1 1 0 100 2.001 1 1 0 000-2zm-10-4a2 2 0 10-.001 4 2 2 0 000-4zm8.5-12a5.5 5.5 0 110 11 5.5 5.5 0 110-11zm0 2a3.5 3.5 0 100 7 3.5 3.5 0 000-7z"/></symbol><symbol id="building" viewBox="0 0 24 24"><path d="M21 19h2v2H1v-2h2V4a1 1 0 011-1h10a1 1 0 011 1v15h4v-8h-2V9h3a1 1 0 011 1v9zM5 5v14h8V5H5zm2 6h4v2H7v-2zm0-4h4v2H7V7z"/></symbol><symbol id="character-recognition" viewBox="0 0 24 24"><path d="M5 15v4h4v2H3v-6h2zm16 0v6h-6v-2h4v-4h2zm-8.001-9l4.4 11h-2.155l-1.201-3h-4.09l-1.199 3H6.6l4.399-11h2zm-1 2.885L10.752 12h2.492l-1.245-3.115zM9 3v2H5v4H3V3h6zm12 0v6h-2V5h-4V3h6z"/></symbol><symbol id="chat-follow-up" viewBox="0 0 24 24"><path d="M21.002 3a1 1 0 011 1v14a1 1 0 01-1 1H6.457l-4.455 3.5V4a1 1 0 011-1h18zm-1 2h-16v13.385L5.765 17h14.237V5zm-3 2v8h-2V7h2zm-6 1v1.999l2 .001v2l-2-.001V14h-2v-2.001l-2 .001v-2l2-.001V8h2z"/></symbol><symbol id="check-outline" viewBox="0 0 24 24"><path d="M12 2C6.48 2 2 6.48 2 12s4.48 10 10 10 10-4.48 10-10S17.52 2 12 2zm0 18c-4.41 0-8-3.59-8-8s3.59-8 8-8 8 3.59 8 8-3.59 8-8 8z"/><path d="M12 2C6.48 2 2 6.48 2 12s4.48 10 10 10 10-4.48 10-10S17.52 2 12 2zm-2 15l-5-5 1.41-1.41L10 14.17l7.59-7.59L19 8l-9 9z"/></symbol><symbol id="check" viewBox="0 0 24 24"><path d="M18.507 6.725l-7.05 7.05-3.586-3.586-1.414 1.415 5 5 8.464-8.465-1.414-1.414z" fill="currentColor"/></symbol><symbol id="chevron-bottom" viewBox="0 0 24 24"><path d="M6 9l6 6 6-6" stroke="currentColor" fill="none" stroke-width="2" stroke-linecap="round"/></symbol><symbol id="chevron-left" viewBox="0 0 24 24"><path d="M15 19l-7-7 7-7" stroke="currentColor" fill="transparent" stroke-width="2" stroke-linecap="square"/></symbol><symbol id="chevron-right" viewBox="0 0 24 24"><path d="M8 5l7 7-7 7" stroke="currentColor" fill="transparent" stroke-width="2" stroke-linecap="square"/></symbol><symbol id="chevron-up" viewBox="0 0 24 24"><path clip-rule="evenodd" d="M5.293 15.707a1 1 0 010-1.414L12 7.586l6.707 6.707a1 1 0 01-1.414 1.414L12 10.414l-5.293 5.293a1 1 0 01-1.414 0z"/></symbol><symbol id="close-large" viewBox="0 0 24 24"><path clip-rule="evenodd" d="M1.293 1.293a1 1 0 011.414 0L12 10.586l9.293-9.293a1 1 0 111.414 1.414L13.414 12l9.293 9.293a1 1 0 01-1.414 1.414L12 13.414l-9.293 9.293a1 1 0 01-1.414-1.414L10.586 12 1.293 2.707a1 1 0 010-1.414z"/></symbol><symbol id="close-small" viewBox="0 0 24 24"><path clip-rule="evenodd" d="M5.99 5.99a.5.5 0 01.707 0l5.304 5.303 5.303-5.303a.5.5 0 11.707.707L12.708 12l5.303 5.303a.5.5 0 11-.707.707L12 12.707 6.697 18.01a.5.5 0 11-.707-.707L11.293 12 5.99 6.697a.5.5 0 010-.707z"/></symbol><symbol id="close" viewBox="0 0 24 24"><path d="M6.343 6.343l11.314 11.314m-11.314 0L17.657 6.343" stroke="currentColor" stroke-width="2" stroke-linecap="round"/></symbol><symbol id="cs-happy" viewBox="0 0 24 24"><path d="M19.938 8H21a2 2 0 012 2v4a2 2 0 01-2 2h-1.062A8 8 0 0112 23v-2a6 6 0 006-6V9A6 6 0 106 9v7H3a2 2 0 01-2-2v-4a2 2 0 012-2h1.062a8.001 8.001 0 0115.876 0zM3 10v4h1v-4H3zm17 0v4h1v-4h-1zM7.76 15.785l1.06-1.696a5.973 5.973 0 003.18.91 5.973 5.973 0 003.18-.91l1.06 1.696A7.963 7.963 0 0112 17a7.964 7.964 0 01-4.24-1.215z"/></symbol><symbol id="cs" viewBox="0 0 24 24"><path d="M22 17.002a6.001 6.001 0 01-4.713 5.86l-.638-1.914A4.004 4.004 0 0019.465 19H17a2 2 0 01-2-2v-4a2 2 0 012-2h2.938a8 8 0 00-15.876 0H7a2 2 0 012 2v4a2 2 0 01-2 2H4a2 2 0 01-2-2v-5C2 6.477 6.477 2 12 2s10 4.477 10 10v5.002zM20 17v-4h-3v4h3zM4 13v4h3v-4H4z"/></symbol><symbol id="drag-move" viewBox="0 0 24 24"><path d="M18.002 11V8l4 4-4 4v-3h-5v5h3l-4 4-4-4h3v-5h-5v3l-4-4 4-4v3h5V6h-3l4-4 4 4h-3v5h5z"/></symbol><symbol id="envelope" viewBox="0 0 24 24"><path stroke="currentColor" fill="transparent" stroke-linecap="square" stroke-width="2" d="M22 5H2v14h20V5z"/><path stroke="currentColor" fill="transparent" stroke-linecap="round" stroke-width="2" d="M2 5l10 9 10-9"/></symbol><symbol id="error-outline" viewBox="0 0 24 24"><path d="M12 2C6.48 2 2 6.48 2 12s4.48 10 10 10 10-4.48 10-10S17.52 2 12 2zm1 15h-2v-2h2v2zm0-4h-2V7h2v6z"/></symbol><symbol id="estonia" viewBox="0 0 24 24"><path d="M17.9 20c-.2 0-.5-.1-.6-.2l-2.5-2.1-1.1-.6-3 1.1c-.4.1-.8 0-1.1-.3-.3-.3-.3-.8-.1-1.1l1.3-2.4-.2-.2-.5.4c-.4.3-.9.3-1.2 0C6.1 12.5 6.1 12.5 6 12c0-.1 0-.2.4-4.1 0-.4.3-.7.6-.8l7.5-3c.3-.1.5-.1.7-.1l4.1 1.2h3.3c.4 0 .7.2.9.6l.4.9c.2.3.1.7 0 1L22 10.8l1.2 5.9c.1.4-.1.9-.5 1.1l-4.3 2.1c-.2.1-.3.1-.5.1zm-4.1-5c.2 0 .3 0 .5.1l1.6.9c.1 0 .1.1.2.1l2 1.7 3-1.5-1.1-5.5c0-.2 0-.5.1-.7l1.7-2.8h-2.9L15 6.1 8.4 8.7c-.1 1-.2 2.1-.3 2.7.3.3.9.7 1.5 1.2l.7-.5c.4-.3 1-.3 1.4.1l1.3 1.4c.3.3.3.8.1 1.2l-.3.6.8-.3c0-.1.1-.1.2-.1zM3.1 11.8c-.1 0-.2 0-.3-.1-.3-.1-.5-.4-.5-.7v-.6l-.7-.6c-.3-.1-.4-.4-.3-.7 0-.3.3-.5.5-.6l.8-.2.3-.6c.1-.3.4-.4.6-.4.2 0 .5.1.6.2l.9 1c.1.1.1.1.1.2l.5 1c.1.2.1.5 0 .7-.1.2-.4.3-.6.3h-.6l-.7.8c-.2.2-.4.3-.6.3zm.7-2.5zm-.7-.4z"/><path d="M1.8 17.8h-.4c-.2 0-.4-.1-.6-.3-.1-.2-.2-.4-.2-.6l.4-1.5-.3-.1c-.3-.2-.5-.6-.4-.9l.4-1.2c.1-.3.3-.4.6-.5l2.1-.4h1.8c.2 0 .4.1.5.2l.8.7c.2.1.3.4.2.6s-.1.4-.3.6l-1.7 1.3c-.1.1-.3.2-.5.2h-.7l-1 1.6c-.2.1-.4.3-.7.3zm.1-3.6l.2.1.3.3c.1-.2.4-.3.6-.3h1l.7-.5H3.6l-1.6.3-.1.1z"/></symbol><symbol id="facebook" viewBox="0 0 24 24"><path d="M12 2C6.477 2 2 6.477 2 12c0 4.991 3.657 9.128 8.438 9.879V14.89h-2.54V12h2.54V9.797c0-2.506 1.492-3.89 3.777-3.89 1.094 0 2.238.195 2.238.195v2.46h-1.26c-1.243 0-1.63.771-1.63 1.562V12h2.773l-.443 2.89h-2.33v6.989C18.343 21.129 22 16.99 22 12c0-5.523-4.477-10-10-10z"/></symbol><symbol id="file-cloud" viewBox="0 0 24 24"><path d="M14.997 2L21 8l.001 4.26a5.471 5.471 0 00-2-1.053L19 9h-5V4H5v16h5.06a4.73 4.73 0 00.817 2H3.993a.993.993 0 01-.986-.876L3 21.008V2.992c0-.498.387-.927.885-.985L4.002 2h10.995zM17.5 13a3.5 3.5 0 013.5 3.5l-.001.103a2.75 2.75 0 01-.581 5.392L20.25 22h-5.5l-.168-.005a2.75 2.75 0 01-.579-5.392L14 16.5a3.5 3.5 0 013.5-3.5zm0 2a1.5 1.5 0 00-1.473 1.215l-.02.14L16 16.5v1.62l-1.444.406a.75.75 0 00.08 1.466l.109.008h5.51a.75.75 0 00.19-1.474l-1.013-.283L19 18.12V16.5l-.007-.144A1.5 1.5 0 0017.5 15z"/></symbol><symbol id="flow-chart" viewBox="0 0 24 24"><path d="M6 21.5A3.5 3.5 0 119.355 17H15v-2h2V9.242L14.757 7H9v2H3V3h6v2h5.757L18 1.756 22.243 6 19 9.241v5.76h2v6h-6v-2H9.355A3.501 3.501 0 016 21.5zm0-5a1.5 1.5 0 10.001 3.001 1.5 1.5 0 00-.001-3zm13 .5h-2v2h2v-2zM18 4.586L16.586 6 18 7.414 19.414 6 18 4.586zM7 5H5v2h2V5z"/></symbol><symbol id="gear-flat" viewBox="0 0 24 24"><path d="M12 1l9.5 5.5v11L12 23l-9.5-5.5v-11L12 1zm0 2.311L4.5 7.653v8.694l7.5 4.342 7.5-4.342V7.653L12 3.311zM12 16a4 4 0 110-8 4 4 0 010 8zm0-2a2 2 0 100-4 2 2 0 000 4z"/></symbol><symbol id="gear" viewBox="0 0 24 24"><path d="M3.34 17a10.02 10.02 0 01-.978-2.326 3 3 0 00.002-5.347A9.99 9.99 0 014.865 4.99a3 3 0 004.631-2.674 9.99 9.99 0 015.007.002 3 3 0 004.632 2.672A9.99 9.99 0 0120.66 7c.433.75.757 1.53.978 2.326a3 3 0 00-.002 5.347 9.99 9.99 0 01-2.5 4.337 3 3 0 00-4.632 2.674 9.99 9.99 0 01-5.007-.002 3 3 0 00-4.632-2.672A10.02 10.02 0 013.34 17zm5.66.196a4.993 4.993 0 012.25 2.77c.5.047 1 .048 1.5.001a4.993 4.993 0 012.25-2.77 4.993 4.993 0 013.525-.565c.29-.408.54-.843.748-1.298A4.993 4.993 0 0118 12c0-1.26.47-2.437 1.273-3.334-.21-.455-.46-.89-.75-1.298A4.993 4.993 0 0115 6.804a4.993 4.993 0 01-2.25-2.77c-.499-.047-1-.048-1.499 0a4.993 4.993 0 01-2.25 2.77 4.993 4.993 0 01-3.526.564 7.99 7.99 0 00-.748 1.298A4.993 4.993 0 016 12a4.99 4.99 0 01-1.273 3.334c.21.455.46.89.75 1.298A4.993 4.993 0 019 17.196zM12 15a3 3 0 110-6 3 3 0 010 6zm0-2a1 1 0 100-2 1 1 0 000 2z"/></symbol><symbol id="layout" viewBox="0 0 24 24"><path d="M3.002 21a1 1 0 01-1-1V4a1 1 0 011-1h18a1 1 0 011 1v16a1 1 0 01-1 1h-18zm4-11h-3v9h3v-9zm13 0h-11v9h11v-9zm0-5h-16v3h16V5z"/></symbol><symbol id="linkedin" viewBox="0 0 24 24"><path d="M18.335 18.339H15.67v-4.177c0-.996-.02-2.278-1.39-2.278-1.389 0-1.601 1.084-1.601 2.205v4.25h-2.666V9.75h2.56v1.17h.035c.358-.674 1.228-1.387 2.528-1.387 2.7 0 3.2 1.778 3.2 4.091v4.715h-.001zM7.003 8.575a1.546 1.546 0 01-1.287-2.409 1.548 1.548 0 111.286 2.409h.001zm1.336 9.764H5.666V9.75H8.34v8.589h-.001zM19.67 3H4.329C3.593 3 3 3.58 3 4.297v15.406C3 20.42 3.594 21 4.328 21h15.338C20.4 21 21 20.42 21 19.703V4.297C21 3.58 20.4 3 19.666 3h.004z"/></symbol><symbol id="mail" viewBox="0 0 24 24"><path d="M3 3h18a1 1 0 011 1v16a1 1 0 01-1 1H3a1 1 0 01-1-1V4a1 1 0 011-1zm17 4.238l-7.928 7.1L4 7.216V19h16V7.238zM4.511 5l7.55 6.662L19.502 5H4.511z"/></symbol><symbol id="menu" viewBox="0 0 24 24"><path d="M4 6h16M4 12h16M4 18h16" stroke="currentColor" stroke-width="2" stroke-linecap="round"/></symbol><symbol id="mind-map" viewBox="0 0 24 24"><path d="M18 3a3 3 0 110 6h-3a3 3 0 01-2.829-2H11c-1.1 0-2 .9-2 2v.171a3 3 0 010 5.658V15c0 1.1.9 2 2 2h1.17A3.003 3.003 0 0115 15h3a3 3 0 110 6h-3a3 3 0 01-2.829-2H11c-2.21 0-4-1.79-4-4H5a3 3 0 110-6h2c0-2.21 1.79-4 4-4h1.17A3.003 3.003 0 0115 3h3zm0 14h-3a1 1 0 000 2h3a1 1 0 000-2zM8 11H5a1 1 0 000 2h3a1 1 0 000-2zm10-6h-3a1 1 0 000 2h3a1 1 0 000-2z"/></symbol><symbol id="node-tree" viewBox="0 0 24 24"><path d="M10 2a1 1 0 011 1v4a1 1 0 01-1 1H8v2h5V9a1 1 0 011-1h6a1 1 0 011 1v4a1 1 0 01-1 1h-6a1 1 0 01-1-1v-1H8v6h5v-1a1 1 0 011-1h6a1 1 0 011 1v4a1 1 0 01-1 1h-6a1 1 0 01-1-1v-1H7a1 1 0 01-1-1V8H4a1 1 0 01-1-1V3a1 1 0 011-1h6zm9 16h-4v2h4v-2zm0-8h-4v2h4v-2zM9 4H5v2h4V4z"/></symbol><symbol id="pages" viewBox="0 0 24 24"><path d="M7 7V3a1 1 0 011-1h13a1 1 0 011 1v13a1 1 0 01-1 1h-4v3.993c0 .556-.449 1.007-1.007 1.007H3.007A1.006 1.006 0 012 20.993l.003-12.986C2.003 7.451 2.452 7 3.01 7H7zm2 0h6.993C16.549 7 17 7.449 17 8.007V15h3V4H9v3zM4.003 9L4 20h11V9H4.003z"/></symbol><symbol id="pause" viewBox="0 0 24 24"><path d="M19.19 5.46v13.18a.62.62 0 01-.6.6H13.8a.54.54 0 01-.42-.18.58.58 0 01-.18-.42V5.46a.58.58 0 01.18-.46.54.54 0 01.42-.18h4.79a.62.62 0 01.6.6zm-8.39 0v13.18a.58.58 0 01-.18.42.54.54 0 01-.42.18H5.41a.62.62 0 01-.6-.6V5.46a.62.62 0 01.6-.6h4.79a.54.54 0 01.42.18.58.58 0 01.18.42z"/></symbol><symbol id="phone" viewBox="0 0 24 24"><path d="M9.366 10.682a10.555 10.555 0 003.952 3.952l.884-1.238a1 1 0 011.294-.296 11.422 11.422 0 004.583 1.364 1 1 0 01.921.997v4.462a1 1 0 01-.898.995A15.51 15.51 0 0118.5 21C9.94 21 3 14.06 3 5.5c0-.538.027-1.072.082-1.602A1 1 0 014.077 3h4.462a1 1 0 01.997.921A11.422 11.422 0 0010.9 8.504a1 1 0 01-.296 1.294l-1.238.884zm-2.522-.657l1.9-1.357A13.41 13.41 0 017.647 5H5.01c-.006.166-.009.333-.009.5C5 12.956 11.044 19 18.5 19c.167 0 .334-.003.5-.01v-2.637a13.413 13.413 0 01-3.668-1.097l-1.357 1.9a12.445 12.445 0 01-1.588-.75l-.058-.033a12.556 12.556 0 01-4.702-4.702l-.033-.058a12.444 12.444 0 01-.75-1.588z"/></symbol><symbol id="play" viewBox="0 0 24 24"><path d="M19 10.3c1.3.8 1.3 2.7 0 3.5L7 20.7c-1.3.8-3-.2-3-1.7V5.1c0-1.5 1.7-2.5 3-1.7l12 6.9z"/></symbol><symbol id="quote" viewBox="0 0 24 24"><path d="M10.515 8.412l.447.688c-1.668.903-1.639 2.352-1.639 2.664.155-.02.318-.024.48-.009a1.761 1.761 0 011.613 1.745 1.75 1.75 0 01-1.75 1.75c-.537 0-1.05-.245-1.374-.59-.515-.546-.792-1.16-.792-2.155 0-1.75 1.228-3.318 3.015-4.093zm5 0l.447.688c-1.668.903-1.639 2.352-1.639 2.664.155-.02.318-.024.48-.009a1.761 1.761 0 011.613 1.745 1.75 1.75 0 01-1.75 1.75c-.537 0-1.05-.245-1.374-.59-.515-.546-.792-1.16-.792-2.155 0-1.75 1.228-3.318 3.015-4.093z"/><path d="M2 12C2 6.477 6.477 2 12 2s10 4.477 10 10-4.477 10-10 10H2l2.929-2.929A9.969 9.969 0 012 12zm4.828 8H12a8 8 0 10-8-8c0 2.152.851 4.165 2.343 5.657l1.414 1.414-.929.929z"/></symbol><symbol id="route" viewBox="0 0 24 24"><path d="M19.5 8v6.5a4.5 4.5 0 11-9 0v-7a2.5 2.5 0 00-5 0v6.67a3.001 3.001 0 11-2 0V7.5a4.5 4.5 0 019 0v7a2.5 2.5 0 005 0V8h-3l4-5 4 5h-3zm-15 8a1 1 0 100 2 1 1 0 000-2z"/></symbol><symbol id="scan" viewBox="0 0 24 24"><path d="M15 3h6v5h-2V5h-4V3zM9 3v2H5v3H3V3h6zm6 18v-2h4v-3h2v5h-6zm-6 0H3v-5h2v3h4v2zM3 11h18v2H3v-2z"/></symbol><symbol id="shield" viewBox="0 0 24 24"><path d="M12 1l8.217 1.826a1 1 0 01.783.976v9.987a6 6 0 01-2.672 4.992L12 23l-6.328-4.219A5.998 5.998 0 013 13.79V3.802a1 1 0 01.783-.976L12 1zm0 2.049L5 4.604v9.185a4 4 0 001.781 3.328L12 20.597l5.219-3.48A3.998 3.998 0 0019 13.79V4.604L12 3.05v-.001zm4.452 5.173l1.415 1.414L11.503 16 7.26 11.757l1.414-1.414 2.828 2.828 4.95-4.95v.001z"/></symbol><symbol id="smiley" viewBox="0 0 24 24"><g clip-path="url(#smileyclip0)"><path d="M7.358 20.824L2.048 22l1.18-5.291A9.927 9.927 0 012.048 12c0-5.523 4.493-10 10.037-10 5.543 0 10.037 4.477 10.037 10s-4.494 10-10.037 10a10.022 10.022 0 01-4.727-1.176zm.292-2.113l.655.35a8.009 8.009 0 003.78.939c1.588 0 3.14-.47 4.46-1.348a8.006 8.006 0 002.958-3.59 7.972 7.972 0 00-1.74-8.719 8.057 8.057 0 00-8.75-1.734 8.023 8.023 0 00-3.604 2.946 7.979 7.979 0 00-.41 8.211l.35.653-.657 2.947 2.958-.655zM7.066 12h2.008c0 .796.317 1.559.882 2.121a3.017 3.017 0 004.258 0A2.994 2.994 0 0015.096 12h2.007a4.99 4.99 0 01-1.47 3.536 5.028 5.028 0 01-7.097 0A4.99 4.99 0 017.066 12z"/></g></symbol><symbol id="speedtest" viewBox="0 0 24 24"><path d="M12 2c5.523 0 10 4.477 10 10s-4.477 10-10 10S2 17.523 2 12 6.477 2 12 2zm0 2a8 8 0 100 16 8 8 0 000-16zm3.833 3.337a.595.595 0 01.763.067.59.59 0 01.063.76c-2.18 3.046-3.38 4.678-3.598 4.897a1.502 1.502 0 01-2.122 0 1.502 1.502 0 010-2.122c.374-.373 2.005-1.574 4.894-3.602zM17.5 11a1 1 0 110 2 1 1 0 010-2zm-11 0a1 1 0 110 2 1 1 0 010-2zm2.318-3.596a1 1 0 11-1.416 1.414 1 1 0 011.416-1.414zM12 5.5a1 1 0 110 2 1 1 0 010-2z"/></symbol><symbol id="team" viewBox="0 0 24 24"><path d="M12 11a5 5 0 015 5v6h-2v-6a3 3 0 00-2.824-2.995L12 13a3 3 0 00-2.995 2.824L9 16v6H7v-6a5 5 0 015-5zm-6.5 3c.279 0 .55.033.81.094a5.947 5.947 0 00-.301 1.575L6 16v.086a1.494 1.494 0 00-.356-.08L5.5 16a1.5 1.5 0 00-1.493 1.356L4 17.5V22H2v-4.5A3.5 3.5 0 015.5 14zm13 0a3.5 3.5 0 013.5 3.5V22h-2v-4.5a1.5 1.5 0 00-1.356-1.493L18.5 16c-.175 0-.343.03-.5.085V16c0-.666-.108-1.306-.309-1.904A3.42 3.42 0 0118.5 14zm-13-6a2.5 2.5 0 110 5 2.5 2.5 0 010-5zm13 0a2.5 2.5 0 110 5 2.5 2.5 0 010-5zm-13 2a.5.5 0 100 1 .5.5 0 000-1zm13 0a.5.5 0 100 1 .5.5 0 000-1zM12 2a4 4 0 110 8 4 4 0 010-8zm0 2a2 2 0 100 4 2 2 0 000-4z"/></symbol><symbol id="translate" viewBox="0 0 24 24"><path d="M5.002 15v2a2 2 0 001.85 1.995l.15.005h3v2h-3a4 4 0 01-4-4v-2h2zm13-5l4.4 11h-2.155l-1.201-3h-4.09l-1.199 3h-2.154l4.399-11h2zm-1 2.885L15.755 16h2.492l-1.245-3.115zM8.002 2v2h4v7h-4v3h-2v-3h-4V4h4V2h2zm9 1a4 4 0 014 4v2h-2V7a2 2 0 00-2-2h-3V3h3zm-11 3h-2v3h2V6zm4 0h-2v3h2V6z"/></symbol><symbol id="trend" viewBox="0 0 24 24"><g clip-path="url(#trendclip0)"><path d="M5.058 3v16h16.06v2H3.05V3h2.007zm15.35 3.293l1.42 1.414-5.73 5.707-3.01-2.999-4.31 4.292-1.418-1.414 5.728-5.707 3.01 2.999 4.31-4.292z"/></g></symbol><symbol id="twitter" viewBox="0 0 24 24"><path d="M22.162 5.656a8.383 8.383 0 01-2.402.658A4.196 4.196 0 0021.6 4c-.82.488-1.719.83-2.656 1.015a4.182 4.182 0 00-7.126 3.814 11.874 11.874 0 01-8.62-4.37 4.168 4.168 0 00-.566 2.103c0 1.45.738 2.73 1.86 3.48a4.168 4.168 0 01-1.894-.522v.052a4.185 4.185 0 003.355 4.1 4.209 4.209 0 01-1.89.073A4.185 4.185 0 007.97 16.65a8.393 8.393 0 01-6.19 1.732 11.83 11.83 0 006.41 1.88c7.692 0 11.9-6.373 11.9-11.9 0-.18-.006-.362-.014-.54a8.495 8.495 0 002.087-2.165v-.001z"/></symbol><symbol id="user-follow" viewBox="0 0 24 24"><path d="M13.998 14.252v2.09a6 6 0 00-8 5.658h-2a8 8 0 0110-7.749v.001zm-2-1.252c-3.315 0-6-2.685-6-6s2.685-6 6-6 6 2.685 6 6-2.685 6-6 6zm0-2c2.21 0 4-1.79 4-4s-1.79-4-4-4-4 1.79-4 4 1.79 4 4 4zm5.793 8.914l3.535-3.535 1.415 1.414-4.95 4.95-3.536-3.536 1.415-1.414 2.12 2.121h.001z"/></symbol><symbol id="user-heart" viewBox="0 0 24 24"><path d="M17.841 15.659l.176.177.178-.177a2.249 2.249 0 113.182 3.182l-3.36 3.359-3.358-3.359a2.25 2.25 0 013.182-3.182zM12 14v2a6 6 0 00-6 6H4a8 8 0 017.75-7.996L12 14zm0-13c3.315 0 6 2.685 6 6a5.998 5.998 0 01-5.775 5.996L12 13c-3.315 0-6-2.685-6-6a5.998 5.998 0 015.775-5.996L12 1zm0 2C9.79 3 8 4.79 8 7s1.79 4 4 4 4-1.79 4-4-1.79-4-4-4z"/></symbol><symbol id="user-voice" viewBox="0 0 24 24"><path d="M.998 22a8 8 0 0116 0h-2a6 6 0 10-12 0h-2zm8-9c-3.315 0-6-2.685-6-6s2.685-6 6-6 6 2.685 6 6-2.685 6-6 6zm0-2c2.21 0 4-1.79 4-4s-1.79-4-4-4-4 1.79-4 4 1.79 4 4 4zM21.546.784A13.94 13.94 0 0122.998 7c0 2.233-.523 4.344-1.452 6.216l-1.645-1.196A11.952 11.952 0 0020.998 7a11.96 11.96 0 00-1.097-5.02L21.546.784zm-3.302 2.4c.5 1.21.756 2.507.754 3.816a9.967 9.967 0 01-.754 3.816l-1.677-1.22A7.989 7.989 0 0016.998 7a7.986 7.986 0 00-.43-2.596l1.676-1.22z"/></symbol><symbol id="voice-recognition" viewBox="0 0 24 24"><path d="M5 15v4h4v2H3v-6h2zm16 0v6h-6v-2h4v-4h2zm-8-9v12h-2V6h2zM9 9v6H7V9h2zm8 0v6h-2V9h2zM9 3v2H5v4H3V3h6zm12 0v6h-2V5h-4V3h6z"/></symbol><symbol id="voice" viewBox="0 0 24 24"><path d="M2 12C2 6.477 6.477 2 12 2s10 4.477 10 10-4.477 10-10 10H2l2.929-2.929A9.969 9.969 0 012 12zm4.828 8H12a8 8 0 10-8-8c0 2.152.851 4.165 2.343 5.657l1.414 1.414-.929.929zM11 6h2v12h-2V6zM7 9h2v6H7V9zm8 0h2v6h-2V9z"/></symbol><symbol id="world" viewBox="0 0 24 24"><path d="M6.235 6.453a8 8 0 008.817 12.944c.115-.75-.137-1.47-.24-1.722-.23-.56-.988-1.517-2.253-2.844-.338-.355-.316-.628-.195-1.437l.013-.091c.082-.554.22-.882 2.085-1.178.948-.15 1.197.228 1.542.753l.116.172c.328.48.571.59.938.756.165.075.37.17.645.325.652.373.652.794.652 1.716v.105c0 .391-.038.735-.098 1.034a8.002 8.002 0 00-3.105-12.341c-.553.373-1.312.902-1.577 1.265-.135.185-.327 1.132-.95 1.21-.162.02-.381.006-.613-.009-.622-.04-1.472-.095-1.744.644-.173.468-.203 1.74.356 2.4.09.105.107.3.046.519-.08.287-.241.462-.292.498-.096-.056-.288-.279-.419-.43-.313-.365-.705-.82-1.211-.96-.184-.051-.386-.093-.583-.135-.549-.115-1.17-.246-1.315-.554-.106-.226-.105-.537-.105-.865 0-.417 0-.888-.204-1.345a1.276 1.276 0 00-.306-.43zM12 22C6.477 22 2 17.523 2 12S6.477 2 12 2s10 4.477 10 10-4.477 10-10 10z"/></symbol><symbol id="youtube" viewBox="0 0 24 24"><path d="M21.543 6.498C22 8.28 22 12 22 12s0 3.72-.457 5.502c-.254.985-.997 1.76-1.938 2.022C17.896 20 12 20 12 20s-5.893 0-7.605-.476c-.945-.266-1.687-1.04-1.938-2.022C2 15.72 2 12 2 12s0-3.72.457-5.502c.254-.985.997-1.76 1.938-2.022C6.107 4 12 4 12 4s5.896 0 7.605.476c.945.266 1.687 1.04 1.938 2.022zM10 15.5l6-3.5-6-3.5v7z"/></symbol></defs><view id="view-account" viewBox="0 0 50 50"></view><view id="view-arrow-bottom" viewBox="50 0 50 50"></view><view id="view-arrow-left" viewBox="100 0 50 50"></view><view id="view-arrow-long-right" viewBox="150 0 83.33 50"></view><view id="view-arrow-right" viewBox="250 0 50 50"></view><view id="view-article" viewBox="300 0 50 50"></view><view id="view-bars-horis" viewBox="350 0 50 50"></view><view id="view-blockquote" viewBox="400 0 50 50"></view><view id="view-bubble-chart" viewBox="450 0 50 50"></view><view id="view-building" viewBox="500 0 50 50"></view><view id="view-character-recognition" viewBox="550 0 50 50"></view><view id="view-chat-follow-up" viewBox="600 0 50 50"></view><view id="view-check-outline" viewBox="650 0 50 50"></view><view id="view-check" viewBox="700 0 50 50"></view><view id="view-chevron-bottom" viewBox="750 0 50 50"></view><view id="view-chevron-left" viewBox="800 0 50 50"></view><view id="view-chevron-right" viewBox="850 0 50 50"></view><view id="view-chevron-up" viewBox="900 0 50 50"></view><view id="view-close-large" viewBox="950 0 50 50"></view><view id="view-close-small" viewBox="0 50 50 50"></view><view id="view-close" viewBox="50 50 50 50"></view><view id="view-cs-happy" viewBox="100 50 50 50"></view><view id="view-cs" viewBox="150 50 50 50"></view><view id="view-drag-move" viewBox="200 50 50 50"></view><view id="view-envelope" viewBox="250 50 50 50"></view><view id="view-error-outline" viewBox="300 50 50 50"></view><view id="view-estonia" viewBox="350 50 50 50"></view><view id="view-facebook" viewBox="400 50 50 50"></view><view id="view-file-cloud" viewBox="450 50 50 50"></view><view id="view-flow-chart" viewBox="500 50 50 50"></view><view id="view-gear-flat" viewBox="550 50 50 50"></view><view id="view-gear" viewBox="600 50 50 50"></view><view id="view-layout" viewBox="650 50 50 50"></view><view id="view-linkedin" viewBox="700 50 50 50"></view><view id="view-mail" viewBox="750 50 50 50"></view><view id="view-menu" viewBox="800 50 50 50"></view><view id="view-mind-map" viewBox="850 50 50 50"></view><view id="view-node-tree" viewBox="900 50 50 50"></view><view id="view-pages" viewBox="950 50 50 50"></view><view id="view-pause" viewBox="0 100 50 50"></view><view id="view-phone" viewBox="50 100 50 50"></view><view id="view-play" viewBox="100 100 50 50"></view><view id="view-quote" viewBox="150 100 50 50"></view><view id="view-route" viewBox="200 100 50 50"></view><view id="view-scan" viewBox="250 100 50 50"></view><view id="view-shield" viewBox="300 100 50 50"></view><view id="view-smiley" viewBox="350 100 50 50"></view><view id="view-speedtest" viewBox="400 100 50 50"></view><view id="view-team" viewBox="450 100 50 50"></view><view id="view-translate" viewBox="500 100 50 50"></view><view id="view-trend" viewBox="550 100 50 50"></view><view id="view-twitter" viewBox="600 100 50 50"></view><view id="view-user-follow" viewBox="650 100 50 50"></view><view id="view-user-heart" viewBox="700 100 50 50"></view><view id="view-user-voice" viewBox="750 100 50 50"></view><view id="view-voice-recognition" viewBox="800 100 50 50"></view><view id="view-voice" viewBox="850 100 50 50"></view><view id="view-world" viewBox="900 100 50 50"></view><view id="view-youtube" viewBox="950 100 50 50"></view><use id="account" xlink:href="#account" width="50" height="50" x="0" y="0"></use><use id="arrow-bottom" xlink:href="#arrow-bottom" width="50" height="50" x="50" y="0"></use><use id="arrow-left" xlink:href="#arrow-left" width="50" height="50" x="100" y="0"></use><use id="arrow-long-right" xlink:href="#arrow-long-right" width="83.33" height="50" x="150" y="0"></use><use id="arrow-right" xlink:href="#arrow-right" width="50" height="50" x="250" y="0"></use><use id="article" xlink:href="#article" width="50" height="50" x="300" y="0"></use><use id="bars-horis" xlink:href="#bars-horis" width="50" height="50" x="350" y="0"></use><use id="blockquote" xlink:href="#blockquote" width="50" height="50" x="400" y="0"></use><use id="bubble-chart" xlink:href="#bubble-chart" width="50" height="50" x="450" y="0"></use><use id="building" xlink:href="#building" width="50" height="50" x="500" y="0"></use><use id="character-recognition" xlink:href="#character-recognition" width="50" height="50" x="550" y="0"></use><use id="chat-follow-up" xlink:href="#chat-follow-up" width="50" height="50" x="600" y="0"></use><use id="check-outline" xlink:href="#check-outline" width="50" height="50" x="650" y="0"></use><use id="check" xlink:href="#check" width="50" height="50" x="700" y="0"></use><use id="chevron-bottom" xlink:href="#chevron-bottom" width="50" height="50" x="750" y="0"></use><use id="chevron-left" xlink:href="#chevron-left" width="50" height="50" x="800" y="0"></use><use id="chevron-right" xlink:href="#chevron-right" width="50" height="50" x="850" y="0"></use><use id="chevron-up" xlink:href="#chevron-up" width="50" height="50" x="900" y="0"></use><use id="close-large" xlink:href="#close-large" width="50" height="50" x="950" y="0"></use><use id="close-small" xlink:href="#close-small" width="50" height="50" x="0" y="50"></use><use id="close" xlink:href="#close" width="50" height="50" x="50" y="50"></use><use id="cs-happy" xlink:href="#cs-happy" width="50" height="50" x="100" y="50"></use><use id="cs" xlink:href="#cs" width="50" height="50" x="150" y="50"></use><use id="drag-move" xlink:href="#drag-move" width="50" height="50" x="200" y="50"></use><use id="envelope" xlink:href="#envelope" width="50" height="50" x="250" y="50"></use><use id="error-outline" xlink:href="#error-outline" width="50" height="50" x="300" y="50"></use><use id="estonia" xlink:href="#estonia" width="50" height="50" x="350" y="50"></use><use id="facebook" xlink:href="#facebook" width="50" height="50" x="400" y="50"></use><use id="file-cloud" xlink:href="#file-cloud" width="50" height="50" x="450" y="50"></use><use id="flow-chart" xlink:href="#flow-chart" width="50" height="50" x="500" y="50"></use><use id="gear-flat" xlink:href="#gear-flat" width="50" height="50" x="550" y="50"></use><use id="gear" xlink:href="#gear" width="50" height="50" x="600" y="50"></use><use id="layout" xlink:href="#layout" width="50" height="50" x="650" y="50"></use><use id="linkedin" xlink:href="#linkedin" width="50" height="50" x="700" y="50"></use><use id="mail" xlink:href="#mail" width="50" height="50" x="750" y="50"></use><use id="menu" xlink:href="#menu" width="50" height="50" x="800" y="50"></use><use id="mind-map" xlink:href="#mind-map" width="50" height="50" x="850" y="50"></use><use id="node-tree" xlink:href="#node-tree" width="50" height="50" x="900" y="50"></use><use id="pages" xlink:href="#pages" width="50" height="50" x="950" y="50"></use><use id="pause" xlink:href="#pause" width="50" height="50" x="0" y="100"></use><use id="phone" xlink:href="#phone" width="50" height="50" x="50" y="100"></use><use id="play" xlink:href="#play" width="50" height="50" x="100" y="100"></use><use id="quote" xlink:href="#quote" width="50" height="50" x="150" y="100"></use><use id="route" xlink:href="#route" width="50" height="50" x="200" y="100"></use><use id="scan" xlink:href="#scan" width="50" height="50" x="250" y="100"></use><use id="shield" xlink:href="#shield" width="50" height="50" x="300" y="100"></use><use id="smiley" xlink:href="#smiley" width="50" height="50" x="350" y="100"></use><use id="speedtest" xlink:href="#speedtest" width="50" height="50" x="400" y="100"></use><use id="team" xlink:href="#team" width="50" height="50" x="450" y="100"></use><use id="translate" xlink:href="#translate" width="50" height="50" x="500" y="100"></use><use id="trend" xlink:href="#trend" width="50" height="50" x="550" y="100"></use><use id="twitter" xlink:href="#twitter" width="50" height="50" x="600" y="100"></use><use id="user-follow" xlink:href="#user-follow" width="50" height="50" x="650" y="100"></use><use id="user-heart" xlink:href="#user-heart" width="50" height="50" x="700" y="100"></use><use id="user-voice" xlink:href="#user-voice" width="50" height="50" x="750" y="100"></use><use id="voice-recognition" xlink:href="#voice-recognition" width="50" height="50" x="800" y="100"></use><use id="voice" xlink:href="#voice" width="50" height="50" x="850" y="100"></use><use id="world" xlink:href="#world" width="50" height="50" x="900" y="100"></use><use id="youtube" xlink:href="#youtube" width="50" height="50" x="950" y="100"></use></svg>