<?xml version="1.0" encoding="UTF-8"?> <svg xmlns="http://www.w3.org/2000/svg" width="1200" height="552" viewBox="0 0 1200 552" fill="none"><path d="M1195.61 478.425C1196.98 478.315 1198.84 477.085 1200 478.197C1199.18 480.298 1197.62 482.024 1195.61 483.045C1194.64 483.47 1193.38 483.312 1192.37 483.737C1190.45 484.524 1189.44 486.521 1187.76 487.889C1186.17 489.177 1184.07 490.278 1182.44 491.351C1180.87 492.369 1178.59 494.459 1176.66 492.957C1176.81 490.26 1179.69 490.289 1180.37 488.111C1180.35 486.497 1178.92 486.316 1178.98 484.651C1182.18 481.85 1187.22 479.835 1187.98 474.045C1188.33 471.482 1186.24 465.977 1189.37 465.739C1193.05 465.46 1190.97 469.437 1191.22 471.505C1191.32 472.345 1192.18 472.915 1192.6 474.045C1193.37 476.066 1193.3 477.906 1195.61 478.425Z" fill="#F2F3FA"></path><path d="M1173.19 492.263C1171.91 496.114 1166.29 498.129 1162.56 500.568C1161.42 501.321 1160.49 503.028 1159.1 503.563C1157.29 504.28 1155.24 504.046 1153.32 504.948C1150.27 506.382 1147.98 509.183 1145.24 510.948C1142.55 512.672 1138.63 515.096 1135.53 515.328C1132.11 515.59 1125.79 513.394 1129.98 510.256C1132.43 508.773 1134.98 507.464 1137.61 506.34C1144.18 503.045 1153.42 500.832 1158.87 496.877C1161.94 494.645 1164.73 492.274 1167.65 490.423C1169.11 489.491 1171.57 491.989 1173.19 492.263Z" fill="#F2F3FA"></path><path d="M1133.22 337.961C1133.96 337.76 1133.93 338.321 1134.38 338.419C1134.1 341.716 1132.12 343.872 1127.9 343.499C1126.02 343.324 1122.72 341.914 1122.59 340.965C1122.12 337.65 1131.1 339.691 1133.22 337.961Z" fill="#F2F3FA"></path><path d="M1121.89 353.644C1123.56 354.116 1130.99 359.359 1128.59 361.712C1127.3 363.01 1125.63 361.024 1123.52 360.564C1120.69 359.947 1118.52 360.698 1116.59 359.178C1114.39 357.46 1113.86 353.715 1111.5 351.567C1109.67 350.087 1107.39 349.273 1105.03 349.259C1101.36 349.656 1101.4 353.855 1098.1 355.718C1094.94 355.38 1093.07 356.294 1090.7 355.485C1088.2 354.635 1086.95 351.403 1084.69 351.11C1082.34 350.792 1076.78 354.885 1075.91 351.338C1075.21 348.466 1079.79 347.523 1080.07 345.572C1080.37 343.569 1078.27 340.453 1077.29 339.573C1076.33 338.7 1074.97 338.629 1073.83 337.961C1072.65 337.255 1071.74 335.904 1070.36 335.193C1065.53 332.671 1058.13 333.697 1056.27 329.655C1055.94 328.937 1056.45 328.151 1056.04 327.121C1055.54 325.857 1053.67 325.448 1053.03 324.353C1051.39 321.54 1052.54 317.386 1055.34 316.967C1057.87 316.595 1062.85 319.705 1063.43 321.587C1063.74 322.57 1063.22 323.676 1063.43 324.813C1063.69 326.177 1065.74 329.507 1067.59 329.655C1069.98 329.851 1071.4 326.165 1073.6 324.813C1075.39 323.645 1077.47 323.005 1079.61 322.967C1081.57 323.118 1082.89 324.661 1085.15 325.501C1086.77 326.106 1088.78 326.346 1090.7 326.887C1092.37 327.359 1093.83 328.343 1095.55 328.961C1101.05 330.952 1107.6 332.118 1110.57 335.653C1111.38 336.62 1111.36 338.047 1112.42 339.113C1113.4 340.097 1118.74 341.059 1118.89 343.266C1119.01 344.943 1116.69 345.042 1116.59 346.725C1116.37 350.086 1121.09 349.888 1121.89 353.644Z" fill="#F2F3FA"></path><path d="M1073.14 491.803C1072.21 495.082 1070.16 497.936 1067.36 499.877C1065.28 501.326 1058.65 504.251 1057.89 500.111C1058.13 497.498 1058.75 494.933 1059.73 492.497C1061.37 489.265 1063.11 491.378 1065.74 491.803C1068.44 492.24 1070.98 490.173 1073.14 491.803Z" fill="#F2F3FA"></path><path d="M1055.11 156.437C1056.05 159.205 1056.69 161.93 1057.43 164.51C1054.88 167.673 1049.84 166.503 1046.11 168.197C1044.35 168.995 1043.86 171.908 1042.17 172.35C1040.81 172.706 1039.76 171.174 1038.48 171.197C1035.16 171.261 1033.54 176.742 1029.46 175.35C1027.14 176.736 1029.56 182.048 1026.69 182.496C1024.66 182.816 1023.54 180.19 1022.3 178.577C1020.8 176.62 1018.67 175.548 1018.61 173.963C1018.55 172.321 1021.92 169.572 1022.99 168.43C1024.31 167.027 1026.88 164.411 1028.54 164.044C1031.62 163.369 1034.74 164.341 1037.09 163.357C1039.11 162.495 1039.23 159.314 1040.32 158.511C1041.25 157.829 1042.31 158.016 1043.1 157.59C1044.54 156.584 1045.63 155.153 1046.21 153.497C1046.79 151.842 1046.83 150.047 1046.33 148.365C1045.56 145.79 1041.29 142.971 1044.03 139.826C1048.12 140.263 1053.52 144.287 1054.19 148.365C1054.46 149.955 1053.57 151.545 1053.73 153.206C1054.1 154.318 1054.56 155.399 1055.11 156.437Z" fill="#F2F3FA"></path><path d="M1056.04 131.293C1055.52 132.47 1054.47 132.225 1053.5 132.906C1052.55 133.57 1051.43 135.685 1050.27 135.906C1048.41 136.256 1046.33 134.088 1044.48 134.526C1042.32 135.038 1043.58 136.698 1042.87 138.673C1040.97 138.271 1037.86 136.162 1037.78 134.06C1037.73 132.738 1039.45 131.922 1039.87 130.373C1040.55 127.735 1038.78 126.407 1037.78 123.913C1037.71 123.54 1038.01 123.517 1038.01 123.22C1040.27 122.748 1044.71 126.995 1049.8 127.833C1053.09 128.374 1055.84 128.084 1056.04 131.293Z" fill="#F2F3FA"></path><path d="M1047.49 365.41C1047.73 367.327 1044.38 367.105 1044.03 365.864C1044.09 364.38 1047.08 363.914 1047.49 365.41Z" fill="#F2F3FA"></path><path d="M1031.31 111.92C1033.6 113.126 1039.14 115.863 1035.24 118.38C1032.88 117.506 1030.41 114.524 1031.31 111.92Z" fill="#F2F3FA"></path><path d="M1020.69 355.265C1023.33 353.826 1026.22 350.668 1030.85 352.259C1029.84 355.131 1026.35 355.072 1024.15 356.413C1021.92 357.769 1020.04 360.069 1017.22 360.333C1017.02 359.933 1016.69 359.609 1016.29 359.406C1016.28 356.831 1018.86 356.243 1020.69 355.265Z" fill="#F2F3FA"></path><path d="M1014.45 311.896C1017.16 311.902 1019.72 311.062 1021.6 312.128C1021.25 317.896 1012.29 313.51 1006.36 314.436C1005.09 314.628 1004.72 315.605 1003.35 315.122C1003.53 314.046 1004.05 313.058 1004.84 312.309C1005.64 311.56 1006.65 311.091 1007.74 310.976C1009.44 310.801 1011.97 311.89 1014.45 311.896Z" fill="#F2F3FA"></path><path d="M1016.75 319.042C1017.02 322.234 1012.65 322.588 1011.44 325.048C1013.36 327.976 1014.11 332.071 1016.29 334.727C1016.2 336.487 1016.65 338.787 1015.6 339.573C1010.95 340.464 1008.44 332.119 1006.58 329.199C1003.03 329.864 1006.27 341.217 1001.51 339.807C999.166 339.113 1001.54 335.87 1001.04 333.353C1000.61 331.14 998.438 330.685 998.268 328.961C998.134 327.54 999.838 326.032 1000.35 324.581C1001.08 322.49 1000.61 318.465 1003.12 318.359C1004.35 318.302 1006.01 320.952 1006.82 321.122C1009.58 321.715 1012.86 318.314 1016.75 319.042Z" fill="#F2F3FA"></path><path d="M1008.2 353.413C1007.35 355.161 1002.6 354.321 1002.2 352.719C1003.01 350.903 1007.81 351.449 1008.2 353.413Z" fill="#F2F3FA"></path><path d="M1003.81 358.945C1003.54 359.288 1003.23 359.599 1002.89 359.873C1001.14 359.313 999.265 358.888 998.735 357.105C1000.03 355.206 1003.75 356.779 1003.81 358.945Z" fill="#F2F3FA"></path><path d="M997.573 353.179C996.401 354.84 992.334 353.045 990.874 354.793C988.47 354.734 986.049 354.704 985.559 352.719C986.252 351.03 988.442 352.19 990.179 352.027C992.97 351.775 996.832 349.819 997.573 353.179Z" fill="#F2F3FA"></path><path d="M964.995 441.52C964.978 439.483 963.699 437.688 963.372 435.528C963.256 434.747 963.489 433.739 963.372 432.754C963.221 431.327 962.514 430.139 962.679 429.294C963 427.768 964.785 427.605 965.228 426.296C965.952 424.145 964.341 423.801 964.3 421.222C964.27 419.4 965.685 418.513 966.616 416.148C967.044 415.053 967.061 413.009 967.534 412.228C968.135 411.245 970.691 410.412 971.694 409.928C975.237 408.192 978.077 404.966 981.638 404.388C982.536 404.243 983.761 404.5 984.409 404.388C986.505 404.023 989.136 402.269 992.035 401.622C994.838 400.987 997.317 401.225 999.429 400.002C1002.13 398.27 1004.35 395.892 1005.89 393.085C1006.95 390.55 1006.64 388.414 1008.67 387.551C1009.66 387.132 1010.64 387.586 1011.67 387.323C1013.16 386.862 1014.57 386.16 1015.83 385.245C1017.44 383.806 1017.71 381.447 1019.53 379.939C1021.18 378.616 1022.96 377.46 1024.85 376.485C1026 375.921 1027.25 375.605 1028.54 375.557C1031.8 375.836 1033.31 380.375 1036.86 379.477C1038.12 379.158 1039.41 376.473 1040.56 374.865C1042.23 372.512 1043.44 369.343 1046.33 368.639C1048.67 368.067 1051.29 369.535 1052.57 367.485C1052.86 366.028 1051.48 365.161 1052.57 364.253C1055.27 364.422 1059.82 368.049 1063.89 368.171C1066.09 368.242 1070.16 365.784 1070.6 369.099C1070.79 370.565 1068.95 371.749 1068.52 373.251C1068.21 374.31 1068.97 374.882 1068.29 376.019C1066.41 376.758 1064.42 377.147 1064.36 379.245C1064.29 381.877 1068.09 383.112 1070.36 384.557C1071.93 385.541 1073.23 387.049 1074.06 387.551C1074.77 387.969 1075.9 388.168 1076.37 388.471C1077.87 389.444 1078.94 391.646 1081 391.705C1083.35 391.762 1085.69 388.773 1087 385.931C1088.54 382.61 1088.63 378.58 1089.31 375.093C1089.54 373.927 1090.37 372.791 1090.7 371.633C1091.59 368.479 1092.8 364.218 1095.55 363.099C1098.31 366.016 1099.25 371.69 1098.79 376.485C1100.64 377.882 1103.88 377.416 1104.33 380.637C1104.49 381.749 1103.78 383.171 1103.87 384.319C1104.03 386.263 1105.48 387.963 1105.73 389.625C1106.19 392.699 1105.21 395.233 1106.64 397.468C1108.44 400.289 1111.98 400.195 1114.27 403.242C1114.37 404.686 1114.76 406.094 1115.42 407.382C1115.64 408.088 1115.44 409.236 1115.66 409.696C1116.4 411.237 1118.4 411.391 1119.12 412.688C1119.48 413.329 1119.38 414.536 1119.82 415.688C1120.73 417.333 1121.82 418.88 1123.05 420.302C1124.09 421.904 1125.8 423.646 1126.05 424.92C1126.52 427.216 1124.85 428.793 1124.43 430.682C1123.94 432.976 1124.43 435.935 1123.52 438.294C1122.44 441.066 1119.8 443.798 1117.74 447.288C1116.05 450.325 1113.86 453.055 1111.26 455.36C1109.8 456.525 1108.07 457.2 1106.64 458.365C1104.51 460.311 1102.5 462.39 1100.64 464.591C1098.55 466.787 1096.03 468.464 1094.39 470.351C1092.02 473.096 1090.84 477.521 1086.77 477.965C1084.51 477.961 1082.25 478.273 1080.07 478.891C1076.65 480.248 1074.38 482.746 1072.68 482.811C1070.89 482.868 1069.24 480.719 1067.59 480.503C1065.74 480.265 1064.29 481.903 1061.59 481.885C1060.48 481.879 1059.93 481.233 1058.35 480.731C1055.05 479.689 1051.42 479.731 1050.96 476.123C1050.7 474.155 1052.22 473.271 1052.11 471.505C1052.01 469.746 1050.28 469.304 1049.57 467.817C1049.92 467.03 1050 466.146 1049.79 465.308C1049.58 464.469 1049.1 463.726 1048.41 463.2C1048.3 462.046 1048.64 460.895 1049.34 459.973C1047.75 460.466 1046.2 461.086 1044.71 461.826C1043.03 462.838 1041.82 465.167 1039.87 464.819C1038.04 464.179 1039.44 462.366 1039.17 460.899C1038.31 458.438 1036.97 456.167 1035.24 454.211C1032.76 452.878 1030.12 451.868 1027.39 451.206C1020.24 450.093 1015.69 453.903 1010.05 454.446C1008.6 454.579 1007.03 454.202 1005.67 454.446C1001.02 455.256 995.846 458.936 992.953 461.359C988.173 461.831 983.33 460.381 978.392 461.826C973.496 463.251 970.691 467.324 963.152 466.199C961.657 464.918 959.002 464.283 958.99 462.052C958.973 460.292 961.598 459.158 962.456 457.9C963.759 455.954 964.625 453.75 964.995 451.44C965.043 449.908 963.961 448.074 964.068 446.14C964.154 444.63 965.007 443.018 964.995 441.52Z" fill="#F2F3FA"></path><path d="M961.069 345.338C962.329 345.164 963.268 344.234 964.535 344.193C967.225 344.086 969.892 346.178 973.077 345.798C973.772 346.545 973.299 347.163 973.317 348.344C976.019 349.783 980.453 349.52 981.859 352.258C979.834 354.401 976.828 352.864 974.233 352.487C971.887 352.154 969.39 352.317 966.839 352.027C963.607 351.653 960.682 349.87 957.602 349.492C955.729 349.259 953.815 349.76 952.052 349.492C949.974 349.172 942.226 346.253 942.116 344.193C942.004 342.066 945.604 341.466 948.814 341.879C952.968 342.421 955.741 346.08 961.069 345.338Z" fill="#F2F3FA"></path><path d="M967.299 329.427C965.554 328.937 963.916 329.205 963.151 328.733C961.568 327.762 961.802 325 961.294 323.427C960.786 321.836 958.868 320.987 957.835 318.815C956.329 315.67 955.681 308.628 959.679 307.975C961.288 307.706 962.947 308.942 964.067 308.669C966.297 308.121 965.905 305.243 967.766 304.049C968.798 303.385 970.691 303.664 972.16 303.129C973.643 302.379 974.913 301.269 975.855 299.901C976.824 298.749 977.582 296.815 978.858 295.983C980.294 295.038 981.625 295.016 982.785 294.135C985.815 291.829 985.913 288.613 988.33 285.829C990.384 283.476 993.628 288.096 993.88 289.983C995.028 291.45 997.287 291.812 998.268 293.443C996.909 297.503 993.068 297.853 993.88 303.589C994.174 304.951 994.64 306.271 995.268 307.515C995.928 308.866 997.882 310.322 997.807 311.201C997.655 312.925 994.177 312.85 993.413 314.661C992.712 316.338 993.464 316.45 993.184 319.041C992.211 320.922 989.602 321.376 988.79 323.661C987.815 326.403 988.936 329.95 986.714 331.967C985.178 331.884 983.498 333.294 981.637 333.113C979.613 332.928 977.68 330.154 974.464 330.113C973.239 330.103 971.791 330.895 970.537 330.807C969.552 330.736 968.753 329.828 967.299 329.427Z" fill="#F2F3FA"></path><path d="M952.349 324.294C958.226 324.294 958.226 333.4 952.349 333.4C946.468 333.4 946.468 324.294 952.349 324.294Z" fill="#F2F3FA"></path><path d="M943.731 323.195C945.248 324.377 946.376 325.986 946.968 327.813C946.888 329.439 944.444 329.351 943.731 331.501C942.646 334.816 944.221 338.57 942.348 340.271C940.861 340.763 939.282 340.919 937.727 340.727C933.652 337.692 929.931 334.211 926.633 330.347C925.253 329.101 924.012 327.708 922.934 326.193C921.733 323.992 921.306 321.57 919.935 319.507C918.722 317.697 916.498 316.403 915.309 314.436C914.344 312.816 914.251 310.688 913.235 309.128C912.279 307.679 910.668 307.056 909.53 305.896C908.795 305.139 908.374 303.957 907.686 303.13C904.782 299.658 899.196 297.847 898.91 292.75C900.094 291.399 901.315 293.257 903.527 293.676C904.961 293.945 906.654 293.56 907.686 293.904C909.786 294.608 911.234 297.881 913.463 299.67C914.712 300.673 916.34 301.364 917.617 302.436C918.99 303.584 919.992 305.225 921.085 305.896C922.59 306.816 924.674 307.421 926.633 308.67C929.306 310.364 934.074 312.128 934.722 315.593C934.88 316.45 934.318 317.905 934.488 318.581C934.809 319.793 936.343 320.317 937.261 321.349C938.397 322.635 938.632 324.558 940.264 324.813C941.893 325.267 941.968 322.967 943.731 323.195Z" fill="#F2F3FA"></path><path d="M834.662 274.758C836.651 275.409 843.293 283.464 841.363 287.909C840.849 288.775 840.097 289.474 839.195 289.924C838.293 290.373 837.281 290.554 836.279 290.443C831.704 289.72 832.579 279.558 833.969 275.451C834.028 275.292 834.12 275.148 834.24 275.029C834.36 274.909 834.504 274.817 834.662 274.758Z" fill="#F2F3FA"></path><path d="M680.994 391.476C681.309 389.199 682.365 387.089 684 385.47C686.131 383.891 689.012 384.055 691.165 382.936C693.264 381.922 695.146 380.512 696.709 378.784C697.824 377.345 697.883 375.703 698.793 374.63C699.411 373.891 700.811 373.692 701.558 372.79C702.229 371.974 702.084 370.461 703.181 369.564C706.389 368.194 707.311 374.06 707.807 378.09C708.097 379.152 708.325 380.23 708.491 381.318C708.158 383.158 706.127 383.537 705.491 384.79C705.333 389.844 703.344 394.236 701.558 398.388C700.024 401.978 699.131 405.909 697.865 409.002C697.404 410.126 696.435 411.005 696.02 411.996C694.351 415.921 693.739 422.085 690.7 423.761C688.627 424.595 686.45 425.138 684.228 425.375C682.874 425.318 681.57 424.844 680.495 424.02C679.421 423.195 678.627 422.059 678.223 420.768C678.059 419.389 677.981 418.002 677.991 416.614C677.709 414.762 676.606 413.183 676.835 411.076C677.348 406.381 681.928 404.102 682.15 400.236C682.32 397.322 680.673 394.429 680.994 391.476Z" fill="#F2F3FA"></path><path d="M569.618 63.2507C569.886 67.1176 563.695 66.635 562.913 69.9426C562.563 71.4397 563.636 73.438 563.38 74.7835C562.907 77.2064 560.562 76.5016 557.602 77.7827C556.092 78.4353 554.627 80.8346 552.981 81.0095C551.459 81.1728 550.53 80.124 549.515 80.3225C547.998 80.6076 548.505 82.4651 546.277 82.8566C544.502 83.1652 541.398 81.272 541.193 83.5494C541.06 85.011 543.983 85.8034 545.816 85.6224C547.268 85.483 548.331 84.4871 549.742 84.4695C552.479 84.4459 554.259 86.4963 555.98 86.5485C559.948 86.6594 563.841 82.891 568.002 83.3166C569.88 83.5082 570.995 84.8361 572.39 84.7025C574.618 84.4921 576.515 81.9236 578.166 81.0095C577.466 77.125 578.23 71.9989 581.866 71.7837C584.363 71.6382 588.11 76.0467 588.564 71.7837C588.763 69.932 586.593 68.2942 585.099 68.3236C583.769 68.3522 582.024 70.951 580.938 68.7896C580.944 66.6754 583.32 67.2346 584.638 66.7098C585.618 66.3195 586.312 65.2539 587.41 64.8638C592.906 62.9362 600.527 66.7569 602.661 62.0969C597.785 57.9448 589.481 63.6114 583.943 63.2507C582.632 63.156 581.368 62.7236 580.275 61.9957C579.182 61.2678 578.296 60.2693 577.705 59.0978C577.466 58.3871 577.665 57.4318 577.472 56.1037C577.262 54.6304 576.497 53.0872 576.55 52.1778C576.784 48.0132 587.176 47.228 587.176 42.032C585.192 40.133 579.374 40.4534 577.472 42.492C576.79 43.2254 576.824 44.7106 575.856 46.1849C573.784 49.3362 567.091 49.7089 564.996 53.5638C564.245 54.9791 563.923 56.5818 564.069 58.1767C564.617 60.3619 569.46 60.9555 569.618 63.2507ZM514.62 288.83C507.962 287.856 501.152 290.536 496.594 292.516C493.962 293.664 491.284 295.411 488.968 295.516C486.774 295.622 484.614 294.352 482.502 294.136C479.489 293.905 476.46 294.06 473.486 294.596C470.831 295.067 468.434 296.961 466.093 297.13C461.611 297.468 457.352 293.1 454.539 290.904C452.817 289.565 451.067 288.468 449.456 287.216C447.729 285.865 445.489 285.049 444.141 283.756C442.32 281.998 442.32 278.939 441.368 276.604C440.243 273.855 436.817 271.834 434.203 269.224C432.248 267.273 427.761 264.355 427.271 261.845C427.025 260.563 427.819 259.084 427.731 257.692C427.609 255.67 426.086 254.523 426.116 253.078C426.162 251.051 428.554 249.484 429.12 247.772C429.412 246.899 429.272 245.664 429.581 244.545C430.229 242.204 431.782 240.818 431.431 237.393C431.29 236.03 430.118 234.784 430.043 233.013C429.996 231.801 430.841 231.126 430.737 230.014C430.562 228.045 428 227.66 427.731 225.401C427.463 223.065 429.967 221.136 431.431 218.481C432.091 217.292 432.452 215.469 433.047 214.561C434.343 212.598 436.455 211.648 437.441 209.715C438.165 208.288 438.398 206.173 439.058 205.102C439.91 203.728 441.602 202.988 443.219 201.182C444.531 199.708 445.068 197.925 445.99 197.262C447.321 196.591 448.715 196.051 450.15 195.649C454.235 194.035 457.599 191.002 459.622 187.109C459.341 185.747 459.361 184.34 459.68 182.986C460 181.632 460.611 180.364 461.471 179.27C462.883 176.899 463.916 174.634 466.326 173.27C469.215 171.64 471.929 171.488 473.947 168.43C475.212 166.719 476.081 164.75 476.492 162.664C476.385 161.413 475.912 160.221 475.131 159.236C474.351 158.251 473.298 157.517 472.103 157.124C470.014 156.793 466.805 158.709 465.632 156.437C465.259 155.709 465.772 154.008 465.632 153.206C465.364 151.696 464.068 150.63 464.016 149.517C463.905 147.351 466.151 145.097 466.787 142.599C467.652 139.197 466.817 136.594 466.554 132.68C469.787 127.594 476.964 130.116 484.119 130.6C485.192 130.676 486.423 130.343 487.584 130.373C491.827 130.471 495.165 131.747 496.594 128.066C497.247 125.505 497.481 122.856 497.289 120.221C496.184 117.728 494.523 115.521 492.433 113.767C490.141 112.31 486.814 112.945 485.502 110.307C486.569 105.752 491.681 109.544 494.744 108.461C496.308 107.908 496.133 105.205 497.522 104.768C498.468 104.471 499.675 105.718 500.989 105.694C503.191 105.075 505.292 104.141 507.226 102.921C508.702 101.926 509.157 99.8575 510.459 99.0013C511.433 98.6096 512.438 98.3018 513.465 98.0814C515.656 97.1092 517.623 95.6953 519.241 93.9284C521.15 91.645 522.007 88.8142 524.324 88.3952C527.423 87.8302 534.43 89.0068 534.956 85.6224C535.451 82.4013 532.114 79.8682 533.339 76.3966C534.308 73.6532 536.776 74.1367 540.272 72.4767C541.958 73.671 541.468 77.0836 541.655 79.1685C543.802 79.1861 548.173 78.5345 548.587 76.6296C549.106 74.253 545.459 71.8359 544.66 70.4027C543.796 68.8477 543.61 66.1161 541.888 65.7898C538.369 65.1144 534.95 70.6306 530.562 70.6306C529.151 70.5811 527.78 70.1466 526.599 69.3742C525.418 68.6019 524.472 67.5213 523.863 66.2498C523.664 65.0297 523.586 63.7931 523.629 62.5577C523.35 60.6705 522.217 58.7136 522.708 56.1037C524.475 53.0753 528.554 52.586 531.49 51.025C532.598 50.4362 533.491 49.179 534.723 48.719C536.795 47.9553 539.857 48.7239 541.888 47.5649C543.172 46.8377 542.811 45.5784 543.738 44.1051C544.315 43.179 545.727 42.6375 546.509 41.572C547.053 40.8318 547.117 39.7131 547.665 39.0322C549.672 36.5395 553.337 35.6195 554.825 33.0381C555.484 31.8968 553.687 31.4713 554.137 29.8064C554.884 28.1982 557.766 29.3806 559.447 29.1133C561.746 28.7576 563.87 25.9678 566.379 25.4263C568.999 24.8611 571.806 25.2041 574.239 24.2732C575.692 23.713 577.029 22.3969 578.4 22.1933C578.884 22.1234 580.25 22.4558 580.938 22.4263C581.819 22.392 582.77 21.8493 583.943 21.7333C585.642 21.5642 587.748 22.1472 589.954 22.1933C593.606 22.2748 597.079 21.0984 600.12 22.4263C601.71 23.1194 601.531 24.919 603.583 25.6533C604.617 26.0258 605.982 25.5078 607.512 25.6533C609.775 25.8685 612.139 27.4294 615.138 27.7323C616.206 27.8373 617.309 27.5986 618.37 27.7323C621.855 28.4843 625.262 29.5648 628.542 30.9591C631.249 31.8734 636.986 33.0098 637.09 35.5722C637.218 38.6064 632.101 39.4922 629.925 39.4922C626.29 39.4922 621.476 37.372 617.683 38.572C617.74 43.7904 623.383 47.7399 628.542 47.1049C628.996 44.6527 625.624 46.016 625.998 43.6451C628.302 41.9093 631.062 44.8098 634.319 44.338C635.59 43.995 635.375 42.16 635.702 40.8782C638.449 39.2119 641.892 36.7665 646.101 38.572C646.301 38.172 646.627 37.8485 647.029 37.651C647.302 35.118 644.256 33.7961 645.872 31.4191C646.678 29.7826 650.985 30.3479 651.649 31.6521C651.982 33.213 650.582 33.0442 650.721 34.4193C651.053 35.1007 651.585 35.6648 652.246 36.0363C652.907 36.4078 653.667 36.5689 654.422 36.4981C656.691 36.3762 657.14 34.3494 659.277 33.2662C660.139 32.8288 661.406 32.7826 662.509 32.3452C663.817 31.8273 664.925 30.7785 665.975 30.4991C666.745 30.2957 667.907 30.4991 668.981 30.2664C670.346 29.9752 671.787 28.8803 672.908 28.8862C674.302 28.8862 675.299 30.4934 677.068 30.7321C678.031 30.86 679.128 30.1847 680.534 30.0392C681.666 29.9163 682.838 30.1728 683.768 30.0392C685.974 29.7188 687.49 28.5598 689.316 28.6533C690.606 28.7232 692.818 30.4579 693.704 29.5792C695.199 28.0989 691.709 26.9988 692.788 25.6533C696.33 25.9207 700.095 25.8391 703.648 26.3462C708.928 27.0974 713.9 29.7069 718.662 29.8064C718.213 26.6028 714.536 27.523 712.885 26.1192C711.714 24.6955 710.85 23.0458 710.347 21.2733C711.207 19.3102 712.292 17.4532 713.581 15.7394C715.617 13.8294 722.298 13.8414 724.206 16.4275C725.514 18.1977 725.081 20.8653 726.977 20.8123C728.612 20.7661 729.48 16.7586 731.371 16.6594C732.935 16.5779 733.729 19.2289 735.298 19.1992C737.213 19.1591 738.544 15.5998 741.077 15.5063C742.442 15.4545 742.897 16.2053 745.002 16.4275C746.45 15.5006 744.52 14.2777 745.237 12.9675C747.821 11.0921 753.721 12.5183 757.018 11.3535C757.94 10.2585 755.844 9.48387 756.79 8.35355C759.638 6.3681 764.424 6.18713 769.273 5.36051C772.237 4.85324 775.031 2.79807 777.354 2.58772C779.782 2.37233 782.098 4.00888 784.286 3.97359C785.715 3.89932 787.121 3.58843 788.448 3.05362C789.748 2.54722 790.636 1.28912 791.918 0.974643C793.945 0.479192 796.505 1.21333 798.851 0.974643C801.33 0.723962 803.521 -0.237386 805.317 0.0546693C806.997 0.322039 808.346 2.11001 809.939 2.36069C814.806 3.11829 819.83 1.63229 824.263 2.82067C825.057 3.03676 825.857 3.85764 826.808 4.20741C829.778 5.29062 831.803 4.95267 832.358 8.58737C834.692 9.41416 836.063 11.5521 838.824 12.2794C840.668 12.7629 842.523 12.0465 844.601 12.0465C847.457 12.0116 850.312 12.1653 853.148 12.5065C854.474 12.7111 855.565 13.6841 856.849 13.8936C857.783 14.0448 859.02 13.7943 860.081 13.8936C861.529 14.0271 862.829 14.6218 864.009 14.5863C866.431 14.5107 868.269 12.3551 870.246 12.0465C871.415 12.0748 872.577 12.2291 873.712 12.5065C877.606 12.8338 882.093 12.0002 885.268 12.7405C887.612 13.6081 889.798 14.8536 891.739 16.4275C893.098 17.4634 893.922 19.112 895.204 19.8864C896.886 20.9222 898.786 21.5544 900.754 21.7333C902.231 21.5004 902.294 19.8579 903.753 19.1992C908.34 18.1802 916.474 20.656 920.163 18.9664C921.591 18.3088 921.312 16.7999 922.473 15.9673C929.406 15.6294 936.315 16.2524 942.809 16.4275C945.037 16.2098 947.277 16.1336 949.515 16.1994C951.802 16.5965 953.47 18.8849 955.747 19.6592C957.263 20.1724 959.936 19.9042 962.219 20.3523C963.751 20.6501 965.007 21.5701 966.144 21.7333C968.545 21.8507 970.951 21.6964 973.317 21.2733C978.615 20.8478 985.425 20.5686 990.647 22.6594C993.425 23.772 994.591 26.0199 997.573 26.3462C1001.85 26.8182 1008.46 25.9965 1012.83 26.3462C1013.74 26.5471 1014.67 26.7006 1015.6 26.8062C1017.06 26.7012 1017.96 25.4607 1019.76 25.4263C1022.05 25.3741 1025.69 28.9846 1029.01 28.4252C1030.44 27.4588 1027.86 26.1133 1029.23 25.1935C1030.53 24.115 1032.31 25.1815 1034.32 25.1935C1035.41 25.2041 1036.75 24.6398 1037.79 24.7331C1040.32 24.9534 1042.73 27.2318 1045.87 27.9593C1048.83 28.5867 1051.88 28.7439 1054.89 28.4252C1056.93 27.9335 1059.03 27.7006 1061.13 27.7323C1062.14 28.066 1063.15 28.4511 1064.13 28.8862C1065.11 29.1357 1066.08 28.897 1066.9 29.1133C1067.67 29.3226 1068.43 30.0451 1069.21 30.2664C1073.51 31.4949 1079.23 32.1004 1083.77 33.4991C1086.45 34.3198 1089.18 35.9741 1091.4 36.0322C1092.49 36.0675 1093.47 35.5604 1094.87 35.5722C1101.85 35.6195 1110.06 38.5201 1109.41 45.031C1101.24 46.8189 1094.41 39.4166 1085.85 41.572C1085.11 41.7575 1084.44 42.1674 1083.95 42.7453C1083.45 43.3232 1083.15 44.0404 1083.08 44.798C1083.39 48.8172 1093.54 48.4791 1094.39 52.4109C1092.73 53.6525 1090.91 52.4806 1089.54 52.6439C1086.97 53.3109 1084.6 54.5742 1082.61 56.3309C1081.05 57.7936 1079.68 61.5383 1077.99 61.8697C1075.92 62.2718 1072.77 59.8369 1069.67 60.4838C1068.53 60.7227 1067.44 62.1381 1066.44 62.3297C1063.89 62.8133 1060.64 60.9438 1059.05 63.9438C1059.89 66.0521 1059.38 68.9882 1061.13 70.1706C1062.25 70.9394 1063.66 70.3448 1065.05 70.8627C1066.68 71.4691 1067.57 73.4439 1068.97 74.5555C1070.12 75.4589 1071.35 75.4826 1071.99 76.6296C1072.13 78.3299 1071.31 78.5168 1071.52 79.6285C1071.88 81.5629 1074.91 82.0004 1074.99 83.3166C1075.09 84.9825 1073.08 84.6268 1072.68 86.3154C1072.54 87.388 1073.92 87.6729 1074.06 89.0826C1074.16 90.026 1073.3 91.01 1073.37 92.0824C1073.47 93.6197 1074.69 94.6448 1074.52 96.0024C1074.4 96.5606 1074.15 97.0822 1073.79 97.5238C1073.43 97.9655 1072.97 98.3143 1072.44 98.5413C1068.02 95.7055 1064.03 91.7963 1059.27 88.1623C1054.4 84.4342 1046.67 79.8564 1045.87 72.0167C1045.84 70.8165 1048.42 69.8728 1048.87 68.0967C1049.06 67.3683 1048.59 66.3313 1048.65 65.3297C1048.81 62.6217 1051.05 60.0179 1050.96 58.4107C1050.85 56.6455 1047.55 53.3664 1045.87 52.8709C1044.53 53.5757 1045.86 54.9733 1045.64 56.1037C1045.41 56.9064 1044.97 57.6317 1044.36 58.2007C1043.75 58.7697 1042.99 59.1606 1042.17 59.3309C1037.8 59.7092 1037.31 53.7104 1030.39 55.4109C1029.11 55.8902 1028.05 56.7976 1027.37 57.9766C1026.7 59.1556 1026.46 60.5324 1026.69 61.8697C1026.88 62.8773 1029.66 63.9615 1029.46 65.3297C1029.27 66.6576 1023.17 67.0479 1021.84 66.9436C1018.11 66.6458 1016.19 63.8621 1012.83 63.9438C1011.18 63.9841 1009.73 65.3237 1008.43 65.5567C1001.16 66.8847 990.355 61.9809 987.875 68.3236C987.519 69.2211 987.718 70.3918 987.409 71.3237C986.855 72.4358 986.238 73.5148 985.559 74.5555C985.278 75.2663 985.325 76.6697 984.864 77.7827C984.445 78.7901 980.074 82.7276 983.942 83.7823C984.864 84.0271 985.295 83.3863 986.487 83.5494C988.47 83.8167 991.773 86.9975 994.107 87.0085C995.501 87.0144 997.433 85.4427 998.497 85.3954C1000.64 85.2913 1002.18 86.6712 1003.81 87.4695C1005.36 88.2321 1007.74 89.8344 1008.9 89.7753C1011.08 89.6653 1010.04 88.1565 1012.13 87.4695C1016.13 88.652 1018 92.8795 1021.84 96.2353C1023.23 97.4461 1025.28 98.4892 1027.15 100.155C1028.2 101.087 1031.41 103.586 1031.55 104.768C1031.67 105.869 1030.65 106.341 1030.39 107.307C1030.01 108.711 1030.89 109.742 1029.92 110.767C1026.24 109.405 1025.41 105.776 1022.76 102.694C1021.78 101.547 1020.79 100.184 1019.3 98.5413C1018.62 97.8022 1016.17 95.2043 1014.67 95.7753C1011.77 96.8761 1016.26 101.273 1016.98 102.234C1018.52 104.267 1020.55 107.004 1020.69 109.154C1020.77 110.528 1019.79 113.027 1019.76 115.38C1019.74 116.971 1020.16 118.414 1019.99 119.76C1019.57 121.262 1019.02 122.729 1018.37 124.147C1017.83 125.836 1017.71 127.857 1017.22 128.987C1016.63 130.158 1015.78 131.181 1014.74 131.98C1013.7 132.779 1012.49 133.332 1011.2 133.6C1009.29 133.681 1008.46 132.125 1006.58 132.219C1003.74 132.352 1003.22 134.968 1001.51 137.059C1001.65 139.33 1002.37 140.111 1001.97 141.673C1001.34 144.119 997.936 144.544 998.04 146.978C998.135 149.232 1001.16 149.67 1002.66 150.672C1005.5 152.629 1008.06 154.956 1010.29 157.59C1011.57 159.233 1013.43 162.303 1013.29 164.044C1013.12 166.328 1006.54 169.502 1003.81 168.657C1001.23 167.859 1002.11 165.396 1001.51 163.124C1001.03 161.377 999.663 160.626 998.97 159.204C998.599 158.458 998.769 157.277 998.269 156.437C996.874 154.09 994.44 155.372 991.562 153.897C989.68 152.931 990.227 150.899 989.487 149.053C988.494 146.571 984.305 145.4 980.943 146.059C978.469 146.535 977.699 148.609 975.393 149.053C972.003 147.048 976.088 142.103 971.928 141.673C968.742 141.34 966.628 146.238 964.761 147.671C963.501 148.633 961.214 148.83 961.068 150.206C960.794 152.75 963.759 152.233 966.144 153.206C968.31 154.09 968.56 156.537 970.538 156.664C972.19 156.776 973.287 154.964 974.928 154.818C977.402 154.747 979.834 155.476 981.858 156.898C980.705 159.693 974.483 161.743 974.465 165.43C974.455 167.568 976.947 167.936 978.859 169.35C980.47 170.545 982.595 173.917 984.864 176.27C985.845 177.284 987.432 177.953 987.875 178.577C988.943 180.103 988.774 181.961 989.947 182.963C990.146 184.226 989.37 184.536 989.487 185.729C990.058 187.389 992.614 187.075 993.185 188.729C992.713 192.707 994.371 196.452 991.107 197.955C989.603 205.09 987.905 210.67 983.021 214.561C978.627 218.05 972.826 219.08 967.534 220.787C966.161 221.23 965.064 222.674 963.839 223.094C960.765 224.136 955.29 223.501 955.063 227.246C954.935 229.093 957.409 230.206 957.602 232.087C957.672 233.406 957.302 234.711 956.549 235.797C955.795 236.883 954.702 237.688 953.44 238.086C952.099 238.232 949.206 237.3 949.046 234.853C948.865 232.104 952.465 230.98 952.747 229.32C953.237 226.384 950.208 223.525 946.742 223.787C943.689 224.014 936.747 230.13 936.577 233.473C936.443 235.972 941.537 241.173 943.276 242.699C949.765 248.407 956.657 251.832 955.518 265.764C953.897 269.294 949.753 270.046 946.51 271.991C944.04 273.47 942.809 278.06 938.649 278.451C936.979 277.88 937.954 275.276 937.493 274.07C936.863 272.416 933.554 271.607 931.488 269.918C929.796 268.531 929.085 266.347 927.789 265.071C926.172 263.482 923.756 263.149 921.778 262.072C920.536 261.396 919.566 259.02 918.312 259.078C916.275 259.16 916.983 261.117 916.469 264.378C915.955 267.587 913.609 270.052 914.385 273.837C914.712 275.387 916.65 276.639 917.617 278.217C919.222 280.833 919.445 283.88 921.085 285.37C922.168 286.355 924.014 286.569 925.245 287.444C927.695 289.191 932.008 292.978 932.873 295.058C933.875 297.485 932.906 300.346 933.566 302.901C934.336 305.854 938.206 307.969 935.882 310.975C933.712 310.346 931.674 309.33 929.867 307.975C927.06 306.301 924.747 303.913 923.167 301.055C922.478 300.184 921.86 299.259 921.318 298.29C920.512 296.221 920.687 293.88 919.935 291.37C918.776 288.579 917.042 286.063 914.846 283.984C913.225 282.458 910.347 281.568 910.225 279.372C910.056 276.277 911.275 272.638 911.153 268.991C911.123 268.205 910.588 267.412 910.464 266.458C910.219 264.687 910.639 262.52 910.225 260.918C909.657 259.477 908.962 258.089 908.147 256.771C907.452 255.344 906.837 253.88 906.304 252.385C905.364 249.718 904.312 244.575 902.142 244.312C899.826 244.033 897.538 248.646 894.516 248.698C893.657 248.691 892.82 248.422 892.118 247.926C891.416 247.431 890.882 246.733 890.589 245.926C890.298 244.511 891.318 243.084 891.282 241.546C891.196 238.453 888.996 237.259 887.351 235.086C886.685 234.208 886.51 232.972 885.961 232.32C884.911 231.067 882.904 230.368 881.573 229.093C880.298 227.872 879.208 226.473 878.335 224.94C877.443 223.135 877.155 220.792 875.796 220.555C874.494 220.327 872.989 222.19 871.636 222.633C869.592 223.189 867.505 223.575 865.397 223.787C860.759 224.107 856.995 222.872 857.543 228.4C856.82 230.881 854.194 230.91 852.455 232.087C850.243 233.589 848.632 236.601 846.218 239.006C845.044 240.183 843.346 240.917 842.29 242.006C841.408 242.914 841.135 244.371 840.207 245.238C837.743 247.563 834.044 247.76 832.358 251.005C832.26 254.838 834.172 257.738 833.741 261.378C833.542 263.038 832.299 264.512 832.12 266.225C831.974 267.692 832.725 269.271 832.358 270.838C832.154 271.676 831.22 272.119 830.503 273.144C829.861 274.064 829.603 275.288 829.126 275.911C828.344 276.907 827.066 277.6 826.341 278.451C825.17 279.838 824.923 280.827 823.803 280.99C818.739 281.717 817.49 272.102 815.255 268.071C814.221 266.219 812.121 264.547 811.093 262.305C809.91 259.719 809.547 256.474 807.855 253.539C806.2 251.117 804.733 248.572 803.467 245.926C802.644 243.73 801.933 240.981 801.157 238.546C800.276 236.002 799.656 233.376 799.308 230.706C799.115 227.712 799.885 225.866 797.456 224.708C795.229 225.232 794.236 227.474 791.68 227.474C789.216 227.474 782.594 223.211 784.524 219.401C782.91 217.117 778.842 215.866 775.739 213.175C773.964 211.631 772.359 207.955 769.273 207.642C768.335 207.715 767.406 207.869 766.496 208.102C764.54 208.271 761.073 207.927 758.868 208.102C755.656 208.575 752.406 208.729 749.164 208.562C746.905 208.317 744.098 207.88 741.77 207.642C738.812 207.338 734.879 206.639 733.227 205.102C732.2 204.158 731.787 201.136 729.983 200.722C727.842 200.226 726.662 201.881 724.673 202.335C720.436 203.302 716.901 201.468 714.039 199.568C712.011 198.223 710.16 197.524 708.726 196.569C705.212 194.222 704.582 187.162 699.248 187.109C697.393 187.092 694.441 188.251 694.165 190.342C693.984 191.811 695.922 194.536 696.71 195.649C699.301 199.295 704.062 200.664 705.492 205.562C706.449 205.934 708.399 204.723 709.419 205.795C710.313 207.897 709.407 211.8 711.497 212.715C721.102 214.298 723.844 209.045 728.139 205.335C730.631 206.96 729.807 208.381 730.678 210.175C731.448 211.928 732.849 213.33 734.605 214.101C735.765 214.543 737.254 214.13 738.999 214.788C740.09 215.201 744.646 219.506 744.782 221.021C744.898 222.377 741.788 226.996 740.843 228.166C739.927 229.309 738.509 229.902 738.071 230.934C737.745 231.732 737.849 233.426 737.608 233.933C737.183 234.854 735.107 236.054 733.91 237.161C732.655 238.228 731.344 239.229 729.983 240.159C728.523 241.278 727.619 242.815 726.055 243.392C722.981 244.523 720.056 244.039 717.508 245.699C715.838 246.782 715.832 249.228 713.813 250.539C711.702 251.908 708.088 251.919 705.025 253.311C703.059 254.203 701.88 255.933 700.182 256.538C699.487 256.783 698.618 256.574 697.866 256.771C696.33 257.161 694.911 258.25 693.472 258.612C692.333 258.903 691.126 258.758 690.005 259.078C686.447 260.103 683.185 263.715 679.606 261.612C677.92 257.727 677.647 252.834 675.679 249.386C674.677 247.627 672.703 247.085 671.986 245.238C671.886 243.754 673.678 244.161 673.83 242.932C673.241 240.44 670.883 239.275 669.442 237.161C668.735 236.129 668.41 234.661 667.592 233.473C664.837 229.472 659.405 227.392 658.347 222.4C658.062 221.043 658.395 219.978 658.121 218.941C657.553 217.148 656.606 215.497 655.344 214.101C654.462 213.075 652.659 212.377 651.649 210.868C650.977 209.872 650.832 208.468 650.261 207.409C647.91 203.167 644.773 199.409 641.018 196.336C639.133 196.609 637.108 196.738 636.169 197.955C637.131 200.801 638.45 203.513 640.096 206.028C641.785 208.347 643.254 210.817 644.484 213.408C644.846 214.368 644.781 215.626 645.179 216.635C646.631 220.292 651.2 221.417 652.11 225.634C652.724 228.458 651.976 230.415 652.805 233.24C653.599 235.954 657.613 237.556 659.277 240.159C660.63 242.285 660.642 245.291 661.587 247.312C662.97 250.271 666.838 251.553 669.674 253.539C672.219 255.327 674.04 258.082 676.14 259.998C677.377 261.117 679.077 261.32 679.378 262.538C679.77 264.099 678.72 264.623 678.45 265.992C680.225 267.838 681.952 271.245 684.922 271.531C686.143 271.647 687.683 270.418 689.544 270.144C690.484 270.01 691.534 270.291 692.316 270.144C693.547 269.923 694.62 268.828 696.02 268.531C698.38 268.025 701.115 268.228 704.103 267.838C706.928 267.47 708.871 265.089 711.036 265.764C713.411 268.368 711.708 271.322 711.036 273.837C710.802 274.722 710.802 275.637 710.581 276.377C709.332 280.483 706.065 283.524 704.564 287.216C704.103 288.346 704.184 289.734 703.648 290.904C701.927 294.601 698.339 298.248 695.553 301.283C694.126 302.929 692.582 304.471 690.933 305.896C689.277 307.258 687.25 307.999 685.383 309.355C681.522 312.233 678.099 315.652 675.218 319.507C674.208 320.893 673.725 322.489 672.674 323.661C671.169 325.338 668.841 326.166 667.592 327.813C666.529 329.744 665.602 331.747 664.819 333.807C663.549 336.445 660.892 338.228 661.355 341.879C661.528 343.277 662.783 344.146 663.204 345.573C663.683 347.941 663.603 350.387 662.97 352.719C664.278 355.882 665.217 359.401 667.592 361.485C667.878 366.152 667.206 370.681 667.592 374.63C667.836 377.147 668.817 379.001 667.825 381.318C666.273 384.049 664.145 386.409 661.587 388.236C659.405 389.642 656.067 390.008 653.727 391.704C652.1 392.88 650.751 394.942 649.104 396.322C646.381 398.589 642.646 400.708 642.406 403.008C642.266 404.331 643.452 406.334 643.789 407.616C644.693 411.023 645.569 415.922 644.023 419.608C642.347 423.599 633.876 422.771 632.931 426.988C632.643 428.27 633.496 429.294 633.392 430.682C632.877 432.991 632.102 435.234 631.08 437.368C630.059 439.278 627.737 440.134 626.23 441.754C624.34 443.798 623.382 446.757 621.375 448.9C618.34 452.05 615.013 454.907 611.439 457.433C607.446 460.135 602.842 461.8 598.042 462.279C595.235 462.478 592.224 461.621 589.26 462.051C588.174 462.203 586.996 463.199 585.56 463.433C584.726 463.567 583.873 463.288 583.021 463.433C581.569 463.677 580.209 464.831 578.861 464.819C577.075 464.562 575.426 463.72 574.172 462.427C572.917 461.133 572.128 459.461 571.929 457.671C571.893 456.303 573.102 455.003 573.084 453.745C573.06 452.273 571.251 450.425 569.845 447.747C568.497 445.172 567.966 442.255 566.612 440.145C565.177 437.898 563.281 436.831 562.224 435.066C560.094 431.519 559.938 427.32 559.219 423.068C558.986 421.682 558.035 420.178 557.83 418.454C557.579 416.335 558.087 413.982 557.602 412.228C556.799 410.693 555.87 409.227 554.825 407.844C553.197 404.854 552.053 400.946 550.67 398.622C549.369 396.444 546.744 394.173 546.509 391.704C546.459 389.541 546.613 387.378 546.97 385.244C547.221 383.624 548.424 382.343 548.82 380.636C549.083 379.5 548.768 378.197 549.048 376.944C550.227 371.666 556.051 369.745 555.291 363.332C554.965 360.612 553.039 359.271 552.748 356.179C552.614 354.734 553.472 353.466 553.442 352.027C553.401 350.08 551.75 347.187 550.898 345.339C548.558 340.249 547.123 335.596 543.738 331.733C541.895 329.626 539.478 328.139 537.961 326.193C536.619 324.501 535.67 322.532 535.183 320.429C535.16 319.112 536.199 318.29 536.572 316.967C537.056 315.267 537.092 312.047 537.727 309.355C538.02 308.121 539.356 305.133 539.117 303.13C538.719 301.743 538.013 300.463 537.052 299.385C536.092 298.307 534.9 297.459 533.567 296.904C530.34 296.105 527.02 297.934 522.941 297.595C519.428 295.376 519.69 289.569 514.62 288.83V288.83ZM642.406 371.405C643.475 369.71 644.817 364.945 642.406 363.791H641.945C640.913 365.707 639.816 370.333 642.406 371.404V371.405ZM639.168 323.195C639.95 321.599 641.782 319.91 641.479 317.895C640.813 313.45 632.486 315.64 631.548 318.815C630.91 320.952 631.926 322.647 631.08 324.813C631.989 326.519 634.272 326.858 637.09 326.655C638.648 325.973 638.455 324.662 639.168 323.195V323.195ZM625.076 346.959C625.992 345.264 623.617 344.157 623.227 342.341C622.77 340.214 623.745 337.715 621.836 336.573H621.149C619.473 340.354 621.842 346.591 625.076 346.959V346.959ZM782.669 117.914C781.801 116.172 779.303 118.426 780.365 119.994C781.929 120.092 782.49 119.19 782.669 117.914V117.914ZM728.833 127.373C732.578 126.65 728.874 120.675 726.055 121.374C722.374 122.294 726.278 127.862 728.833 127.373V127.373ZM711.731 157.124C712.885 149.127 706.642 148.528 705.492 142.826C706.023 142.895 705.748 142.161 706.187 142.133C707.703 141.404 709.998 143.298 710.802 141.446C710.819 138.713 707.347 136.675 703.869 137.986C702.866 137.298 702.732 135.743 702.486 134.293C699.867 132.738 693.383 129.336 693.472 126.22C693.547 123.657 696.861 122.218 700.637 122.3C702.23 121.095 701.204 117.39 699.715 116.533C693.74 115.229 690.555 116.108 686.771 118.84C684.957 120.15 682.933 121.054 681.917 121.84C680.795 122.773 680.056 124.085 679.841 125.527C679.986 126.954 682.035 127.793 682.846 129.68C683.26 130.652 683.171 131.87 683.539 132.68C684.55 134.904 687.134 136.343 689.084 138.213C690.46 139.535 694.323 142.4 694.399 143.979C694.47 145.295 693.214 145.587 692.788 146.978C692.232 148.848 691.998 150.797 692.095 152.745C692.601 155.279 695.229 155.366 697.631 156.437C700.018 157.498 702.319 159.373 704.797 159.431C707.321 159.591 709.808 158.763 711.731 157.124V157.124ZM657.425 140.519C663.689 139.389 660.829 134.106 657.654 132.219C655.249 130.787 652.374 129.54 649.567 127.833C647.938 126.843 641.752 124.974 641.713 122.993C641.666 120.827 646.316 120.116 644.484 116.301C641.321 115.532 633.799 116.743 634.319 120.221C634.617 122.23 637.004 121.117 637.551 123.22C635.288 124.024 632.533 126.132 630.158 125.76C627.328 125.318 626.599 121.846 625.076 119.76C622.876 119.831 621.429 117.634 618.837 117.914C616.119 118.211 614.677 122.148 613.289 124.147C612.552 125.195 611.38 125.736 610.976 126.68C610.738 127.251 611 128.159 610.75 128.987C609.956 131.549 607.733 132.487 607.971 134.753C608.188 136.75 610.364 137.648 610.518 139.366C610.364 141.137 607.516 140.216 607.744 142.366C611.88 145.773 612.109 140.758 614.216 140.059C615.908 139.493 619.229 140.525 621.375 140.059C623.109 139.68 624.474 138.032 626.459 137.293C627.865 136.753 629.348 136.44 630.853 136.366C638.205 136.063 642.95 140.839 649.339 140.979C652.042 141.044 654.747 140.89 657.425 140.519V140.519ZM642.634 167.737C642.762 165.262 641.689 163.398 641.479 159.897C637.213 157.329 634.026 162.28 629.697 161.738C627.036 161.406 625.127 158.313 622.303 158.744C620.745 158.977 619.975 160.987 618.37 161.277C615.067 161.883 613.562 158.639 610.055 159.897C605.107 156.135 602.895 150.007 601.734 143.059C599.039 139.529 594.926 142.4 592.953 144.672C591.739 144.661 590.223 144.002 589.954 145.365C589.044 149.629 595.993 150.083 595.958 152.977C595.935 154.859 593.245 154.685 592.032 155.972C590.742 157.34 591.6 158.558 589.954 159.431C585.396 159.979 583.885 157.492 583.943 153.437C581.976 150.455 579.491 148.283 577.705 145.826C576.822 144.747 576.19 143.486 575.856 142.133C575.692 141.055 576.369 139.686 576.089 138.446C575.587 136.244 571.479 134.584 568.923 133.373C566.086 132.283 563.374 130.89 560.836 129.22C559.464 128.066 558.817 126.063 557.602 125.3C556.57 124.653 555.286 124.787 554.364 124.147C553.097 123.261 553.308 121.787 551.593 121.374C550.723 121.054 549.381 122.236 548.82 122.993C547.694 128.026 551.796 128.37 553.669 130.6C554.959 132.132 555.601 134.438 556.908 135.446C558.303 136.523 560.199 136.325 561.991 137.059C563.229 137.566 564.033 139.104 565.224 139.826C567.43 141.165 570.972 141.398 571.235 143.979C569.863 144.911 566.753 142.621 565.69 144.905C565.417 146.402 566.881 147.171 566.846 148.592C566.746 149.801 566.188 150.927 565.286 151.742C564.385 152.556 563.206 152.998 561.991 152.977C561.763 151.626 563.199 150.52 563.147 149.053C563.047 146.117 557.136 141.637 554.137 140.292C552.73 139.658 551.02 139.622 549.742 138.906C546.904 137.221 544.333 135.123 542.116 132.68C540.464 130.495 539.053 126.453 535.417 126.68C533.935 126.773 532.709 128.13 531.49 128.76C530.299 129.305 529.141 129.919 528.023 130.6C526.971 131.524 525.696 132.16 524.324 132.446C521.424 132.569 518.961 130.297 516.469 130.833C515.484 131.234 514.612 131.868 513.925 132.68C514.074 133.903 514.152 135.134 514.159 136.366C513.406 137.665 511.171 137.584 509.537 138.446C507.127 140.064 504.949 142.004 503.065 144.212C501.811 145.446 500.679 146.465 500.522 147.438C500.399 148.201 501.169 149.646 500.989 150.672C500.167 152.433 498.89 153.945 497.289 155.052C496.472 155.611 495.386 155.686 494.517 156.204C492.696 157.282 491.88 158.686 490.356 158.971C486.318 159.723 478.977 158.162 479.036 162.432C479.071 165.285 482.928 165.297 485.274 165.197C488.541 165.07 491.319 165.891 493.128 165.43C494.489 164.752 495.8 163.982 497.055 163.124C497.884 162.752 498.742 162.746 499.366 162.432C500.749 161.738 501.531 160.614 502.605 160.124C505.27 159.102 508.072 158.479 510.92 158.278C514.036 158.097 517.292 158.599 521.319 158.278C522.754 158.167 524.172 157.247 525.713 157.124C528.228 156.927 531.536 158.115 533.567 158.05C534.974 158.004 536.543 156.641 538.188 156.664C539.047 156.671 539.889 156.911 540.622 157.358C541.355 157.806 541.952 158.444 542.349 159.204C542.542 159.88 541.958 160.957 542.116 161.972C542.384 163.648 543.826 164.341 543.738 165.43C543.615 166.875 540.01 168.803 540.499 170.504C540.82 171.598 543.405 172.741 544.66 173.503C546.212 174.5 547.935 175.203 549.742 175.577C551.049 175.723 552.205 175.216 553.442 175.35C555.727 175.699 557.924 176.481 559.914 177.656C562.084 179.183 561.781 181.628 564.302 182.496C565.375 182.87 567.312 182.659 568.69 182.963C572.057 183.69 574.554 186.475 577.011 186.189C580.88 185.741 579.118 182.101 579.556 179.503C580.542 173.614 592.066 173.882 594.342 177.883C596.029 178.332 597.505 177.953 599.424 178.577C600.533 178.938 601.361 180.149 602.429 180.423C603.234 180.627 604.406 180.306 605.434 180.423C609.864 180.923 613.878 184.215 617.683 183.65C620.097 183.294 621.848 181.029 624.148 180.883C628.57 180.61 631.4 184.168 636.169 182.496C639.676 181.267 638.894 177.64 640.096 173.963C640.931 171.407 642.54 169.665 642.634 167.737V167.737ZM891.739 89.0825C892.069 87.6878 892.029 86.2314 891.624 84.8568C891.218 83.4821 890.461 82.2364 889.427 81.2424C886.76 81.7024 888.687 84.4694 888.505 86.0884C888.243 88.3777 885.809 89.9681 885.961 92.3153C885.074 93.3514 883.558 93.7592 883.424 95.5413C884.893 96.5558 885.535 94.7442 886.656 93.6954C888.425 92.0409 891.127 91.0629 891.739 89.0825ZM831.196 9.04727C829.351 9.11649 827.573 9.76218 826.115 10.8933C825.244 11.3535 823.476 11.6101 824.037 12.9674C826.255 12.6991 830.666 11.6975 831.196 9.04727ZM733.684 37.419C734.744 37.7218 735.877 37.6511 736.892 37.2187C737.907 36.7863 738.741 36.0185 739.256 35.0444C739.771 34.0702 739.934 32.949 739.718 31.869C739.502 30.7889 738.921 29.8159 738.071 29.1132C737.23 28.3092 734.394 27.9947 733.226 26.1191C731.81 23.8644 732.007 20.8536 728.6 21.5062C728.565 21.7736 728.641 22.1578 728.366 22.1932C728.047 27.2367 735.403 28.5067 735.298 32.5721C735.247 34.7043 732.988 34.9313 733.684 37.419Z" fill="#F2F3FA"></path><path d="M657.653 28.6536C656.982 26.1598 661.72 26.5618 660.891 28.8866C660.151 29.5796 658.126 29.5206 657.653 28.6536Z" fill="#F2F3FA"></path><path d="M629.235 166.585C629.342 164.68 633.694 163.981 634.545 165.665C634.259 167.516 630.13 168.791 629.235 166.585Z" fill="#F2F3FA"></path><path d="M549.977 154.131C552.386 152.185 557.748 153.502 561.069 153.437C560.445 155.203 560.351 157.492 558.986 158.511C555.199 157.829 551.668 156.897 549.977 154.131Z" fill="#F2F3FA"></path><path d="M533.106 141.906C536.28 138.597 539.612 140.345 538.422 146.746C537.663 148.655 534.36 151.207 532.872 148.365C533.239 146.232 533.318 144.059 533.106 141.906Z" fill="#F2F3FA"></path><path d="M537.727 134.526C537.89 135.2 537.819 135.909 537.525 136.538C537.232 137.166 536.733 137.677 536.111 137.986C533.065 137.449 535.381 131.992 537.727 134.526Z" fill="#F2F3FA"></path><path d="M492.901 87.7019C492.946 86.9514 492.774 86.2038 492.404 85.5487C492.035 84.8936 491.483 84.359 490.817 84.009C490.059 83.5834 488.897 83.7819 488.045 83.3162C485.793 82.0805 484.975 79.5063 483.658 78.9361C483.826 76.4081 482.962 74.5789 483.658 72.9363C484.96 71.0768 486.707 69.5712 488.74 68.5563C490.759 67.8456 492.871 68.4807 494.056 66.9432C494.254 66.9016 494.458 66.9003 494.657 66.9393C494.855 66.9784 495.044 67.057 495.211 67.1704C495.2 68.626 493.974 68.865 493.822 70.1703C494.108 72.2668 497.808 70.9557 498.21 72.9363C497.86 75.0917 495.917 75.5166 495.9 77.0892C495.893 78.4575 498.701 81.0562 500.061 82.8562C501.075 84.1899 502.85 85.1798 503.76 86.5481C504.553 87.7422 504.728 89.1637 505.375 89.775C506.59 90.923 509.332 91.1148 509.537 92.775C509.805 94.9768 506.795 95.8447 507.226 98.308C504.052 100.795 498.759 99.5082 493.589 100.155C491.249 100.452 488.67 102.775 486.195 100.848C485.623 99.2989 488.249 99.0884 488.507 97.621C488.325 96.2586 486.598 96.4502 486.195 95.3139C486.867 93.5199 488.961 93.1534 488.74 90.4679C490.029 89.0645 492.51 89.595 492.901 87.7019Z" fill="#F2F3FA"></path><path d="M475.57 82.1625C478.657 80.2811 484.048 81.72 484.346 84.0092C484.574 85.7393 482.707 85.99 482.035 87.9293C481.434 89.6937 482.152 91.7904 481.347 93.0083C480.641 94.0618 478.72 93.998 477.414 94.3883C474.508 95.2563 468.895 98.6639 466.554 94.8483C466.893 92.8047 468.877 92.3967 469.559 90.7012C469.6 89.3674 468.177 88.6635 468.404 87.2423C468.684 85.5006 469.998 86.1 471.871 85.3952C473.229 84.8774 473.813 83.2349 475.57 82.1625Z" fill="#F2F3FA"></path><path d="M317.742 32.1122C318.226 34.1625 311.661 36.8421 311.036 34.1922C310.54 32.0719 316.066 29.4218 317.742 32.1122Z" fill="#F2F3FA"></path><path d="M310.115 552H306.648C307.773 551.622 308.99 551.622 310.115 552Z" fill="#F2F3FA"></path><path d="M299.715 15.7397C299.913 15.584 300.158 15.4994 300.41 15.4994C300.662 15.4994 300.906 15.584 301.105 15.7397C300.876 16.2812 300.696 16.87 299.715 16.6597V15.7397Z" fill="#F2F3FA"></path><path d="M279.152 52.4106C279.199 53.6805 274.56 55.7832 274.063 53.3316C274.012 52.967 274.074 52.5955 274.239 52.2666C274.405 51.9377 274.667 51.6669 274.991 51.4905C276.223 50.7338 279.105 51.1642 279.152 52.4106Z" fill="#F2F3FA"></path><path d="M183.02 266.685C182.898 267.028 182.677 267.267 182.56 267.611C180.104 267.524 182.32 264.39 183.02 266.685Z" fill="#F2F3FA"></path><path d="M89.2009 105.461C90.8229 104.518 92.3757 106.883 91.2846 108C89.4982 108.344 89.0433 106.306 89.2009 105.461Z" fill="#F2F3FA"></path><path d="M341.076 113.994C339.997 113.725 338.527 113.779 337.149 113.534C335.97 113.323 334.57 112.974 333.456 112.841C330.602 112.503 327.515 113.33 325.828 111.688C328.801 107.918 332.129 104.442 335.766 101.308C336.816 100.37 339.075 99.7293 338.539 97.848C336.572 96.124 334.156 97.9531 332.3 99.0011C330.328 100.358 328.14 101.372 325.828 102.001C322.007 102.566 316.936 100.882 313.814 102.921C313.382 104.663 317.367 103.988 316.814 106.614C316.116 106.836 315.375 106.89 314.652 106.769C313.929 106.649 313.246 106.358 312.658 105.921C311.585 104.955 312.197 103.504 311.503 102.921C310.318 101.943 305.866 101.675 303.876 102.001C302.758 102.067 301.689 102.481 300.819 103.184C299.948 103.887 299.32 104.844 299.021 105.921C301.939 107.284 306.748 104.517 307.803 108C306.205 110.872 302.44 112.451 302.948 116.301C303.142 117.135 303.539 117.908 304.104 118.552C304.669 119.196 305.385 119.691 306.187 119.994C307.465 120.215 308.184 118.951 309.42 119.067C310.727 119.19 310.43 120.681 311.964 120.454C314.188 119.504 315.419 116.387 317.969 116.533C321.027 120.237 315.209 122.043 311.964 123.22C308.264 124.56 303.457 125.27 300.637 126.452C299.162 127.07 293.572 132.463 292.784 128.293C292.217 125.288 295.549 126.156 296.25 123.68C292.672 122.987 289.34 125.218 286.084 126.452C281.439 128.206 273.568 129.318 272.448 134.526C272.225 135.567 272.902 137.519 272.22 138.212C271.666 138.772 268.351 138.87 266.903 139.365C264.675 140.128 262.731 141.759 261.354 142.133C260.315 142.417 258.781 142.336 258.121 142.598C256.284 143.309 255.606 145.79 253.5 147.438C252.636 148.114 250.722 148.603 250.033 149.284C248.838 150.473 248.68 153.449 246.568 153.897C245.226 154.014 244.135 152.89 242.868 153.665C242.717 156.606 243.906 160.608 242.641 163.584C239.732 165.768 236.639 167.697 233.398 169.35C231.46 170.439 229.727 170.719 227.387 171.89C225.73 172.717 224.213 174.686 222.305 175.81C217.893 178.402 212.565 181.472 212.6 188.036C212.607 189.457 213.341 190.988 213.522 192.649C213.633 193.627 213.405 194.582 213.522 195.649C213.796 198.06 215.547 201.129 213.522 202.795C210.412 201.519 206.456 201.088 204.279 198.876C203.684 196.597 205.481 194.723 205.207 192.649C204.985 190.983 202.639 188.018 201.274 187.803C199.868 187.58 198.572 189.072 197.119 188.956C195.392 188.822 193.787 186.445 191.569 186.189C188.319 185.81 185.927 186.929 182.326 186.422C178.842 188.281 177.821 191.589 173.55 191.262C172.044 191.152 170.668 190.005 168.929 189.649C166.737 189.081 164.487 188.772 162.223 188.729C158.29 188.99 155.437 191.815 152.059 193.569C149.077 195.118 144.857 197.046 143.971 200.262C143.486 201.991 143.895 204.426 143.277 206.027C142.723 207.063 142.105 208.063 141.426 209.021C139.804 211.65 138.724 214.575 138.248 217.625C137.772 220.675 137.911 223.79 138.655 226.786C139.68 229.532 140.996 232.16 142.581 234.626C144.445 236.34 146.777 237.463 149.281 237.853C151.085 237.633 152.865 237.247 154.597 236.7C156.617 236.512 158.624 236.204 160.607 235.779C165.602 234.184 164.616 227.439 169.617 225.167C172.358 224.188 175.255 223.72 178.166 223.786C178.761 224.338 179.219 225.022 179.5 225.783C179.782 226.544 179.881 227.36 179.788 228.166C179.66 229.344 178.54 230.409 177.938 232.087C177.413 233.561 177.302 235.285 176.783 236.472C176.095 238.028 174.56 239.163 174.011 240.625C173.65 241.574 173.848 242.757 173.55 243.619C173.019 245.14 170.983 246.211 171.928 247.772C176.877 249.735 182.863 247.213 187.181 248.005C189.002 248.337 192.76 250.509 192.725 253.311C192.702 255.409 191.102 256.783 190.875 259.078C190.595 261.967 189.387 265.502 189.259 267.838C189.055 271.664 194.884 278.27 198.963 278.217C203.357 278.159 205.919 273.854 211.211 276.144C212.968 276.9 214.823 279.743 216.76 279.603C218.36 279.487 220.775 276.691 221.844 274.758C223.145 272.398 223.238 270.412 225.537 269.224C228.017 267.943 229.99 268.56 233.163 267.378C234.563 266.774 235.883 265.999 237.091 265.071C238.211 264.302 239.39 262.287 240.79 263.685C242.635 265.526 238.532 266.562 240.096 268.531C243.3 270.226 244.939 265.379 247.262 265.304C248.916 265.822 250.476 266.601 251.884 267.611C253.687 268.793 254.299 270.452 256.272 270.838C257.538 271.088 259.575 270.354 261.354 270.605C263.712 270.942 265.118 272.963 266.903 272.911C269.081 272.853 270.125 270.488 271.987 270.144C276.066 269.399 277.582 270.599 279.38 273.144C281.393 273.493 281.463 270.82 283.306 271.764C282.297 273.773 283.651 274.699 284.462 276.377C284.988 277.454 284.9 278.217 285.39 278.683C286.493 279.731 288.623 279.731 290.239 280.758C291.944 281.829 292.906 283.82 294.861 286.063C296.874 288.358 300.258 290.734 302.948 290.903C305.487 291.067 307.552 290.186 309.654 290.443C314.433 291.031 317.403 293.414 320.746 295.983C322.614 297.414 324.3 298.411 324.901 300.129C325.321 301.328 325.117 302.937 325.596 304.283C326.617 307.153 330.812 308.539 329.296 313.509C329.989 314.964 331.548 315.489 333.222 316.507C334.564 317.329 335.697 319.041 337.149 319.275C338.077 319.254 339.003 319.176 339.921 319.041C342.255 319.364 344.52 320.067 346.626 321.121C348.049 321.471 349.441 321.936 350.787 322.513C351.96 323.299 352.112 325.955 353.558 326.655C354.504 327.113 356.605 326.48 358.18 326.655C360.66 326.946 364.027 328.46 366.267 328.507C367.627 328.534 368.754 327.946 369.961 328.041C375.622 328.477 378.831 335.234 384.293 337.267C385.985 337.902 388.67 337.459 389.837 337.961C391.885 338.845 393.612 345.101 393.764 347.873C394.231 356.255 387.782 358.944 384.06 364.484C383.283 365.644 382.852 367.478 381.749 369.098C379.531 372.354 377.064 373.03 377.361 379.016C377.443 380.659 378.283 382.262 378.283 384.09C378.311 386.492 378.078 388.89 377.588 391.242C377.209 392.769 375.943 394.008 375.739 395.396C375.534 396.799 376.153 397.889 375.972 399.088C375.349 400.881 374.494 402.585 373.428 404.156C371.292 408.093 370.825 412.723 366.495 414.302C363.951 415.234 360.503 414.714 357.719 415.688C356.593 416.085 355.169 417.121 353.786 417.762C349.766 419.631 344.035 422.153 342.927 426.296C341.94 429.987 344.303 432.928 343.621 437.139C342.783 438.505 341.857 439.814 340.849 441.059C339.851 442.37 339.355 443.908 338.305 445.213C336.916 446.949 334.757 447.718 333.917 450.059C333.63 450.851 333.812 451.795 333.456 453.053C333.321 453.519 332.47 454.241 332.067 455.127C331.694 455.947 331.711 456.997 331.373 457.671C330.317 459.798 327.176 464.638 324.901 465.283C320.104 466.624 315.045 463.25 311.73 463.891C312.209 466.205 313.89 465.965 314.969 467.585C315.504 468.705 316.12 469.783 316.814 470.813C317.852 472.012 318.769 472.454 318.897 473.811C318.896 475.122 318.581 476.413 317.978 477.577C317.375 478.741 316.501 479.745 315.43 480.503C313.313 481.483 311.047 482.105 308.725 482.345C307.016 482.63 302.604 482.647 301.793 483.737C300.603 485.339 302.424 489.294 301.566 490.883C299.839 494.256 295.193 490.79 292.784 491.803C292.642 492.633 292.74 493.486 293.068 494.262C293.396 495.038 293.939 495.704 294.633 496.183C296.086 497.034 298.292 495.927 299.255 497.57C298.782 499.865 296.308 500.162 295.788 502.416C295.853 504.618 296.53 505.194 296.25 506.562C295.648 509.527 291.033 509.405 291.167 512.562C291.366 517.286 300.246 515.352 300.41 519.948C300.503 522.732 297.866 522.761 296.944 525.476C296.448 526.931 297.23 527.269 296.944 528.474C296.559 530.112 294.633 530.583 294.633 532.394C294.627 534.602 297.866 537.032 299.482 538.854C301.109 540.988 303.058 542.857 305.26 544.394C308.504 546.181 313.336 545.78 314.736 549.006C314.293 550.946 312.419 551.465 310.575 552H310.115C308.99 551.622 307.773 551.622 306.648 552H303.415C300.323 550.578 296.57 549.658 292.784 548.314C291.418 547.83 289.878 546.676 288.395 546.014C287.281 545.504 286.026 545.308 285.157 544.854C283.167 543.812 280.926 540.433 278.918 539.092C277.699 538.272 275.785 537.84 274.991 537.008C274.307 535.894 273.689 534.741 273.142 533.554C272.395 532.494 271.024 531.72 270.136 530.554C268.217 528.008 265.766 524.584 265.748 522.708C265.73 520.862 267.511 519.61 266.903 517.874C266.338 516.237 262.79 516.592 262.282 514.636C261.973 513.459 263.303 511.473 263.203 509.8C263.151 508.829 261.33 507.506 262.05 506.102C262.878 504.488 264.441 506.236 265.748 505.414C264.768 502.084 265.824 496.725 262.51 495.723C260.806 497.156 264.248 500.378 261.354 501.263C258.56 500.022 259.207 496.348 258.582 493.65C257.956 491.929 257.493 490.153 257.199 488.345C257.338 487.276 257.414 486.2 257.427 485.122C256.936 482.013 253.471 479.467 253.266 476.351C253.173 474.849 254.189 473.579 254.421 471.971C254.585 470.882 254.27 469.659 254.421 468.511C254.626 467.044 255.438 465.698 255.578 464.359C255.799 461.352 255.644 458.328 255.117 455.359C254.545 452.697 252.426 450.433 252.111 447.525C252 446.471 252.462 444.718 252.344 443.371C252.234 442.119 251.545 440.878 251.423 439.445C251.467 438.051 251.621 436.663 251.884 435.293C252.129 432.4 251.318 429.172 251.423 426.296C251.452 425.45 251.896 424.821 251.884 423.993C251.854 421.613 251.06 419.212 250.956 416.842C250.775 412.462 251.441 409.358 250.729 405.31C250.191 402.245 249.526 397.55 248.417 395.628C247.181 393.479 242.32 389.832 239.869 388.47C238.252 387.574 236.315 387.265 234.553 386.396C230.789 384.556 223.494 380.659 221.844 376.944C221.365 375.865 221.429 374.443 220.916 373.25C219.912 370.885 217.793 368.841 216.294 366.558C213.441 362.206 211.135 356.751 208.206 352.258C206.901 349.931 205.435 347.696 203.818 345.573C202.866 344.501 199.821 343.499 199.429 341.879C198.911 339.748 197.329 336.819 197.58 335.193C197.912 332.985 202.208 331.202 202.202 329.199C202.196 327.486 199.908 326.492 199.429 325.047C198.263 321.518 200.113 319.448 201.507 316.507C201.968 315.546 202.417 313.992 202.896 313.281C203.742 312.011 205.463 311.655 206.59 310.281C207.22 309.513 207.617 307.91 208.439 306.821C210.196 304.491 213.032 303.619 213.756 301.515C214.491 297.169 214.568 292.738 213.983 288.369C213.58 286.714 212.034 285.33 211.445 283.755C210.401 280.972 210.156 277.932 207.284 277.99C205.511 278.025 204.262 279.983 203.123 281.217C202.85 282.859 202.995 284.636 201.274 285.137C198.648 285.912 197.638 282.375 194.575 281.449C193.355 281.078 191.413 281.1 190.647 280.758C188.413 279.755 187.689 276.487 185.332 275.217C183.359 274.163 181.672 274.53 180.477 272.911C180.205 271.389 180.128 269.839 180.249 268.298C177.717 266.818 175.569 261.303 172.622 259.998C170.668 259.13 167.674 259.211 165.229 258.384C164.174 257.935 163.092 257.55 161.99 257.232C160.575 257.076 159.182 256.765 157.835 256.305C153.26 254.039 150.792 246.695 145.126 246.852C142.71 246.916 140.382 249.17 138.193 249.158C136.017 249.147 132.37 247.423 129.64 246.159C126.803 244.843 123.664 244.126 121.323 242.932C119.434 241.965 118.121 240.2 116.469 239.466C115.203 238.907 113.353 238.809 112.314 238.319C110.621 237.271 109 236.113 107.459 234.853C105.714 233.648 103.829 231.807 103.759 230.246C103.683 228.441 105.422 226.903 105.61 225.167C106.204 219.675 102.149 215.725 99.5985 212.481C97.7088 210.07 95.4912 208.026 93.5945 205.794C93.6999 204.721 93.6999 203.641 93.5945 202.568C92.0684 200.83 90.6775 198.978 89.4339 197.029C88.0621 195.147 85.3895 193.143 85.0459 191.035C84.6195 188.444 86.0317 186.166 85.0459 183.65C83.4004 179.473 77.5943 181.361 78.3406 186.882C78.5513 188.402 80.6982 190.447 81.3459 191.956C82.0107 193.493 81.8829 195.41 82.5012 197.262C83.097 199.038 84.8883 200.57 85.5067 202.568C86.4866 205.725 86.458 209.127 87.356 211.1C88.1498 212.854 91.0735 214.514 89.4339 216.634C87.2458 217.088 86.4047 214.904 85.0459 213.634C84.2867 212.93 81.5391 211.59 81.1187 209.948C80.7681 208.59 81.9823 206.762 81.5795 205.102C80.7858 201.846 74.2036 201.764 74.18 198.415C74.1683 196.312 76.9344 196.061 76.9581 194.029C76.9758 191.804 73.918 189.923 73.2583 188.036C72.7182 185.766 72.4094 183.448 72.3366 181.116C72.356 178.876 72.1999 176.638 71.8697 174.423C70.9009 172.483 69.3727 170.876 67.4816 169.81C65.4559 168.687 63.8519 169.152 62.8602 167.504C61.9951 165.609 61.4488 163.584 61.2432 161.511C60.9104 158.738 61.1675 155.704 61.0097 152.744C60.7065 149.754 60.7065 146.741 61.0097 143.751C62.1531 141.52 64.2368 140.419 65.4038 138.212C66.2153 136.675 66.3314 134.776 67.2482 133.14C68.9402 130.128 72.628 127.344 75.1077 124.374C77.8168 121.413 80.0742 118.071 81.8071 114.454C82.3672 113.155 83.8731 110.278 83.6564 108.688C83.3532 106.468 79.1638 104.639 79.4958 102.001C79.7065 100.364 82.0403 100.388 82.7346 98.7738C83.1438 97.4251 83.3771 96.0293 83.4289 94.6209C83.4643 92.3966 82.2857 90.0779 82.7346 87.702C83.1137 85.6743 86.1368 84.8536 84.585 82.6291C83.0437 80.4272 80.2778 83.8165 78.574 82.3953C77.0101 81.0849 78.8892 79.5005 79.0348 77.0893C79.0931 76.1279 78.4745 75.0331 78.574 74.3233C78.714 73.2922 80.7277 71.5564 80.1911 70.8624C78.9421 69.2848 77.541 65.2774 74.8744 63.9435C71.4848 62.243 67.8136 63.3902 63.0937 62.5575C60.1984 62.0502 58.8276 59.3482 56.161 59.5636C54.5153 59.6913 53.5701 61.5725 51.306 62.5575C49.0646 63.5355 46.1359 63.2033 43.9125 63.7104C41.7067 64.2177 40.645 65.7374 38.3624 65.5564C36.4607 65.4111 36.4489 63.6987 34.2086 63.4833C32.8878 63.642 31.5767 63.8734 30.2814 64.1765C25.744 64.6779 21.161 64.5996 16.6435 63.9435C13.5097 63.1627 10.4838 62.0007 7.63381 60.4835C4.88533 59.2136 -0.214712 57.6468 0.00699852 55.6377C0.146678 54.3441 4.83918 52.9758 6.70639 52.4106C9.71769 51.4966 11.5731 50.0172 13.8724 49.8706C14.7585 49.8187 15.9258 50.4193 17.1054 50.3377C18.29 50.2501 19.7485 49.161 21.266 48.9507C24.492 48.5025 29.0434 49.1139 28.6585 45.9519C26.2084 44.0172 16.2121 47.3838 15.9493 43.1848C15.7915 40.6448 19.7424 39.8763 22.6544 39.2649C25.6023 38.4967 28.6213 38.0322 31.6641 37.8788C34.3023 38.0125 37.7736 40.9595 39.2909 37.6507C40.0257 35.2986 38.3919 33.3238 37.9014 31.4188C39.8632 28.7159 43.4742 29.0539 46.2226 28.653C49.2406 28.2815 52.1945 27.5054 55.0047 26.3459C57.8131 25.1862 60.7656 24.4103 63.782 24.0391C66.9213 23.6323 69.9673 22.4498 72.7975 22.193C75.0367 22.1556 77.2725 22.002 79.4958 21.733C81.4741 21.3489 83.5639 20.2536 85.7403 20.352C87.1937 20.4169 88.4365 21.4766 89.8948 21.733C91.2656 21.9721 92.8362 21.6632 94.2888 21.966C95.4036 22.1989 96.4069 22.9499 97.5219 23.1191C99.2726 23.3814 101.151 22.8743 102.837 23.1191C104.389 23.34 105.709 24.3073 107.226 24.5001C110.785 24.9601 114.858 24.3132 118.319 24.9651C119.632 25.2099 120.816 25.8564 122.246 26.1189C123.6 26.3637 125.088 26.0834 126.407 26.3459C128.244 26.7126 129.78 28.4484 131.723 28.653C135.299 29.0256 139.314 27.1029 143.043 26.8059C145.824 26.8294 148.603 26.6758 151.364 26.3459C153.788 25.6354 156.259 25.0964 158.758 24.7329C160.017 24.68 161.074 25.1174 162.223 24.9651C163.42 24.8028 164.856 23.3698 166.151 23.5791C167.872 23.8532 167.569 26.0256 169.389 26.5789C171.403 25.5362 173.41 26.6488 175.627 26.5789C177.787 26.5033 179.718 25.5134 182.099 25.886C186.306 26.5445 192.183 30.6562 195.496 28.4249C196.331 27.8606 196.133 26.8875 196.886 25.426C197.907 23.4395 199.92 21.1039 199.429 18.2732C194.796 18.3487 190.374 20.6086 185.098 20.812C179.771 17.4809 186.522 15.4137 190.414 13.8933C193.623 12.635 196.162 9.84432 200.125 9.2802C203.357 8.8143 206.911 9.99087 210.75 10.4331C212.991 10.6899 215.232 10.276 216.527 10.6602C218.797 11.3425 219.964 13.5845 221.844 14.1203C222.654 14.3533 223.984 14.3296 225.077 14.586C227.153 15.0638 229.015 16.159 231.087 14.586C232.714 14.8771 232.907 16.607 234.553 16.8931C236.087 16.0654 237.272 13.9628 239.635 13.4333C240.662 13.2002 241.742 13.6071 242.868 13.4333C244.753 13.1305 247.262 10.5845 248.417 12.9672C247.945 14.6325 245.424 14.883 244.023 16.1991C242.781 17.3698 240.866 20.0551 241.024 21.2731C241.299 23.4737 244.602 22.6236 244.718 25.426C244.227 27.0389 242.348 26.3166 240.79 27.0389C239.367 27.6976 238.836 29.06 237.324 29.3459C233.123 30.1373 229.639 28.2912 226.004 28.4249C225.835 29.9977 227.801 30.9128 228.775 31.4188C232.072 33.1489 234.757 32.9101 239.402 32.8059C241.783 32.7527 244.52 33.5155 246.568 32.1119C247.863 31.2273 247.793 29.2762 248.878 28.192C250.579 26.6435 252.816 25.8164 255.117 25.886C256.167 26.061 257.643 27.3073 257.66 28.192C257.696 30.2885 254.69 29.6192 254.656 31.8849C256.611 33.0556 261.775 30.604 262.05 28.653C262.247 27.2315 260.369 26.4097 260.433 24.9651C260.544 22.548 263.834 22.5892 263.438 20.12C261.851 18.8726 260.193 20.3873 258.582 20.12C256.312 19.7408 254.27 17.0268 253.266 15.2731C254.27 14.0327 256.371 14.8595 257.888 15.046C259.587 12.6988 262.749 11.7847 267.132 11.3533C268.69 11.2019 270.767 10.5845 271.525 12.0462C271.899 14.2312 268.287 15.5415 268.981 18.0462C272.091 18.8205 273.112 14.6325 275.685 12.9672C277.086 12.2157 278.556 11.5993 280.074 11.1262C281.497 10.5845 283.068 9.24491 284.234 9.2802C285.512 9.31462 285.74 10.3634 287.006 10.8931C288.145 11.3708 289.633 10.5668 290.012 12.0462C287.333 16.6779 277.349 14.015 274.758 18.7332C275.336 21.8963 273.194 24.913 274.991 27.0389C276.275 28.5537 279.169 27.5227 279.841 29.113C280.745 31.2382 277.04 31.2382 277.997 33.7259C280.442 35.1876 283.354 32.3331 285.618 31.1918C288.045 29.9633 291.115 28.5124 291.394 25.653C290.175 23.3117 285.624 25.1233 284.929 22.6591C284.55 21.3191 286.324 18.3193 286.773 17.8131C289.184 15.1159 297.598 11.2776 303.643 11.8143C304.793 11.9184 305.954 12.6173 307.109 12.7402C311.083 13.1471 315.775 11.0268 318.897 12.7402C321.406 11.2776 324.416 12.9378 327.906 12.5062C330.597 14.0908 329.855 17.4631 333.917 18.9662C335.02 19.374 336.397 19.083 337.844 19.4262C338.918 19.6826 340.079 20.9407 341.31 21.506C343.061 22.2984 344.403 22.1174 344.776 23.3461C345.144 24.5521 343.504 25.3326 343.621 26.5789C344.619 27.3996 343.784 28.6353 344.315 29.8061C345.313 31.943 347.828 31.7865 350.319 32.8059C352.07 33.5216 355.805 35.7174 355.636 37.4188C355.525 38.5601 352.128 40.5633 351.015 41.1118C350.227 41.4951 346.329 43.3766 345.01 43.1848C342.827 42.8644 341.975 38.4548 338.999 38.5718C338.663 38.5615 338.327 38.6202 338.014 38.7442C337.7 38.8682 337.416 39.055 337.177 39.2929C336.939 39.5308 336.752 39.8149 336.628 40.1278C336.503 40.4406 336.445 40.7754 336.455 41.1118C336.409 44.1403 339.851 44.2562 339.921 46.8776C340.015 50.0113 338.206 50.2265 335.533 52.1775C333.662 51.1507 331.63 50.4497 329.523 50.1048C328.046 51.8573 331.951 52.4864 330.678 54.7177C326.967 55.5029 324.137 53.6689 320.746 52.6436C319.572 52.5176 318.412 52.2856 317.28 51.9505C315.967 51.1937 315.582 48.9507 314.503 47.7977C313.02 46.0738 310.973 44.9304 308.725 44.5707C305.872 44.5766 301.74 48.1181 299.482 44.7977C301.047 39.5154 308.457 43.4355 313.346 41.5718C315.167 40.8779 315.793 38.9563 317.28 38.1107C320.268 36.4104 325.123 36.1715 324.673 32.8059C324.446 31.1103 322.071 31.1339 320.746 30.2661C318.937 29.0894 317.554 24.9364 314.969 24.7329C313.639 24.6279 312.682 25.7523 311.27 25.886C308.282 26.1652 304.956 24.6858 302.26 25.886C301.006 26.6025 301.851 27.7497 300.872 29.113C300.066 30.2306 298.164 30.5451 297.405 31.6518C296.518 32.9504 296.699 34.5643 295.555 35.5719C293.658 37.2497 289.645 37.517 287.24 38.3388C286.166 38.7056 284.812 39.9637 283.773 39.9578C281.866 39.946 281.048 37.3954 278.918 38.3388C278.732 40.8081 281.533 41.8106 283.307 42.9517C285.227 44.1863 287.245 45.4161 287.929 47.5646C286.049 51.5486 283.05 47.3553 280.074 47.3376C276.795 47.3141 272.009 53.5705 269.215 48.4907C269.909 45.7994 272.879 45.3806 273.603 42.7247C270.34 43.278 267.499 46.0214 263.665 46.8776C262.054 47.2326 260.485 47.146 259.043 47.5646C256.278 48.3747 254.347 50.4134 251.423 51.4905C250.279 51.9103 248.914 51.7817 247.723 52.1775C244.614 53.3192 241.601 54.708 238.714 56.3306C235.876 57.698 233.169 59.32 230.626 61.1766C229.639 62.0267 227.072 65.0561 227.159 66.0174C227.276 67.3917 229.867 67.8457 229.931 69.2493C229.872 70.0996 228.432 71.9349 229.47 73.1693C230.415 74.2939 232.312 73.3845 234.32 73.6293C237.85 74.0669 240.16 76.9784 242.868 78.4762C245.164 79.8026 247.664 80.7374 250.268 81.2422C253.442 81.6384 256.996 80.3163 257.427 82.8563C257.848 85.2959 254.439 86.1698 254.194 87.702C255.904 89.9559 253.033 91.0333 253.039 93.0082C253.174 93.9868 253.597 94.9033 254.255 95.6415C254.913 96.3797 255.775 96.9065 256.733 97.155C259.062 97.3527 262.469 94.8657 263.438 92.5421C264.587 89.7751 264.097 86.0243 266.209 84.0091C276.975 84.306 286.084 79.1279 285.39 68.0964C285.084 66.8893 284.929 65.6488 284.929 64.4035C285.267 62.6214 288.337 61.1245 287.929 58.8704C290.945 57.9446 290.817 53.1156 293.939 52.4106C296.554 51.8229 299.512 54.2575 302.948 54.0235C304.069 53.949 305.522 52.9464 306.648 53.1036C308.906 53.4181 310.266 56.1969 311.964 57.4846C313.464 58.6318 315.045 58.2651 315.43 59.7906C314.981 62.3765 313.16 62.4406 313.346 64.8635C313.503 65.7744 313.91 66.6239 314.522 67.3172C315.135 68.0105 315.928 68.5202 316.814 68.7894C318.83 68.8626 320.828 68.3833 322.59 67.4033C325.683 65.941 328.333 61.5381 330.912 62.0966C332.948 62.5399 334.54 68.9987 334.839 71.3235C335.16 73.8162 334.5 75.721 334.611 78.0152C334.909 81.9066 339.816 81.5096 342.233 83.5491C342.961 84.1666 343.248 85.7442 343.854 86.5482C345.027 88.1091 346.445 88.1091 346.626 89.7751C347.058 93.759 343.008 94.0971 343.388 98.5411C342.553 100.265 340.446 100.161 340.616 102.461C340.884 106.102 346.124 103.311 347.548 106.154C348.318 107.68 347.42 108.816 346.854 110.994C348.645 113.126 348.634 116.528 345.47 116.533C343.551 116.533 343.02 114.472 341.076 113.994ZM91.2843 108C92.3754 106.882 90.8226 104.517 89.2006 105.461C89.0429 106.305 89.4979 108.344 91.2843 108ZM252.578 128.987C251.615 128.049 248.476 128.316 246.335 128.526C244.823 128.678 243.026 128.998 242.868 130.14C245.272 131.24 251.825 132.033 252.578 128.987ZM240.557 125.066C240.942 124.743 241.234 124.323 241.402 123.85C241.571 123.377 241.61 122.868 241.516 122.374C241.423 121.881 241.199 121.422 240.868 121.043C240.538 120.665 240.112 120.381 239.635 120.221C238.877 120.022 237.868 120.779 236.63 120.686C235.323 120.587 234.016 119.393 232.936 119.3C232.13 119.233 231.319 119.343 230.56 119.622C229.801 119.901 229.113 120.342 228.542 120.914C228.472 122.294 229.558 122.515 229.47 123.913C227.223 125.515 228.414 130.873 230.626 131.065C232.972 131.27 234.185 125.142 237.324 124.606C238.462 124.408 239.046 125.252 240.557 125.066H240.557ZM237.324 134.293C234.039 133.128 231.005 135.085 228.315 135.446C226.71 135.661 223.787 135.119 224.154 137.519C224.451 139.476 227.48 138.766 229.237 138.212C232.174 137.475 234.927 136.14 237.324 134.293ZM227.159 116.761C231.763 114.804 226.249 108.775 224.154 108.227C220.408 107.249 215.08 110.97 210.75 112.148C208.311 112.811 205.989 112.87 205.435 114.92C207.623 118.531 211.947 114.128 215.139 114.687C216.755 114.972 217.7 117.18 219.299 117.454C221.934 117.437 224.563 117.206 227.159 116.761V116.761ZM223.921 120.454C222.963 119.329 217.781 120.587 216.294 121.607C215.272 122.311 214.578 124.03 213.522 125.3C212.431 126.61 211.211 127.623 210.289 128.76C209.455 129.784 204.775 136.523 208.439 137.292C210.003 137.618 213.218 134.38 213.522 133.14C213.865 131.254 214.597 129.46 215.67 127.872C216.744 126.284 218.137 124.935 219.76 123.913C221.663 122.766 223.611 122.911 223.921 120.454ZM195.035 94.6209C197.615 94.5276 199.36 86.9216 195.035 87.9292C192.141 88.6046 191.441 94.7497 195.035 94.6209ZM182.56 267.611C182.677 267.267 182.899 267.028 183.02 266.685C182.32 264.39 180.104 267.523 182.56 267.611V267.611ZM84.8125 74.5552C84.8647 74.119 84.5495 74.0432 84.585 73.6293C83.879 73.6244 83.0615 73.4958 83.1954 74.3233C83.2609 74.4729 83.3636 74.6034 83.4938 74.7023C83.624 74.8013 83.7773 74.8654 83.9393 74.8886C84.1012 74.9119 84.2664 74.8934 84.4193 74.8351C84.5721 74.7767 84.7074 74.6804 84.8125 74.5552ZM327.679 38.3389C328.816 38.4787 329.458 38.1179 329.296 36.9589C328.267 36.2364 326.769 37.1848 327.679 38.3389ZM301.105 15.7391C300.907 15.5835 300.662 15.4988 300.41 15.4988C300.158 15.4988 299.913 15.5835 299.715 15.7391V16.6591C300.696 16.8695 300.877 16.2807 301.105 15.7391ZM213.295 33.4989C214.065 33.0034 215.244 32.3331 214.678 31.1918C212.127 29.9977 207.815 30.9069 204.051 30.4989C201.916 27.4872 198.344 27.0213 198.041 31.8849C202.341 35.3684 208.854 30.26 213.295 33.4989ZM171.928 57.2565C173.241 56.8024 175.062 57.0354 175.394 55.6377C174.314 54.7756 173.206 53.6108 171.928 53.5636C170.253 53.5057 169.447 54.9851 167.767 55.8706C165.813 56.9017 163.105 57.1524 162.918 58.8704C166.495 59.5693 169.716 58.0144 171.928 57.2565ZM170.772 40.6448C172.249 40.3941 173.766 41.0587 174.705 39.7248C173.602 34.646 166.565 37.75 162.457 38.1107C161.353 39.4582 160.564 41.0344 160.147 42.7247C163.332 43.5278 167.178 41.2561 170.772 40.6448ZM240.096 276.377C241.923 276.08 241.391 271.891 239.175 272.911C237.499 273.685 238.369 276.651 240.096 276.377Z" fill="#F2F3FA"></path><path d="M84.5848 73.6296C84.5493 74.0435 84.8645 74.1193 84.8123 74.5555C84.7072 74.6807 84.5719 74.777 84.4191 74.8354C84.2662 74.8937 84.101 74.9122 83.9391 74.8889C83.7771 74.8657 83.6238 74.8016 83.4936 74.7027C83.3634 74.6037 83.2607 74.4732 83.1952 74.3236C83.0613 73.4961 83.8788 73.6248 84.5848 73.6296Z" fill="#F2F3FA"></path><path d="M77.6518 87.2428C77.3544 87.9168 76.9088 88.5154 76.3481 88.9942C75.7875 89.473 75.126 89.8197 74.4129 90.0086C73.9746 89.6814 73.5856 89.2932 73.2578 88.8557C73.3573 86.6659 76.479 85.0527 77.6518 87.2428Z" fill="#F2F3FA"></path></svg> 